ISO-10303-21;
HEADER;
/* Generated by software containing ST-Developer
 * from STEP Tools, Inc. (www.steptools.com) 
 */
/* OPTION: using custom renumber hook */

FILE_DESCRIPTION(
/* description */ ('STEP AP242 Edition 2',
'CAx-IF Rec.Pracs.---Representation and Presentation of Product Manufa
cturing Information (PMI)---4.0---2014-10-13',
'CAx-IF Rec.Pracs.---3D Tessellated Geometry---0.4---2014-09-14','2;1',
'CAx-IF Rec.Pracs.---User Defined Attributes---1.5---2016-08-15'),
/* implementation_level */ '2;1');

FILE_NAME(
/* name */ 'Assembly 1 - Part 78',
/* time_stamp */ '2026-09-12T15:16:11Z',
/* author */ (''),
/* organization */ (''),
/* preprocessor_version */ 'ST-DEVELOPER v20',
/* originating_system */ 'ONSHAPE BY PTC INC, 1.220',
/* authorisation */ '  ');

FILE_SCHEMA (('AP242_MANAGED_MODEL_BASED_3D_ENGINEERING_MIM_LF { 1 0 10303 442 3 1 4 }'));
ENDSEC;

DATA;
#10=SHAPE_REPRESENTATION_RELATIONSHIP('','',#756,#11);
#11=ADVANCED_BREP_SHAPE_REPRESENTATION('',(#754),#1316);
#12=B_SPLINE_CURVE_WITH_KNOTS('',3,(#1271,#1272,#1273,#1274,#1275),
 .UNSPECIFIED.,.F.,.F.,(4,1,4),(0.,0.00169737554930875,0.0033947510986175),
 .UNSPECIFIED.);
#13=B_SPLINE_CURVE_WITH_KNOTS('',3,(#1285,#1286,#1287,#1288,#1289),
 .UNSPECIFIED.,.F.,.F.,(4,1,4),(0.,0.00169892862353344,0.00339785724706687),
 .UNSPECIFIED.);
#14=B_SPLINE_CURVE_WITH_KNOTS('',3,(#1297,#1298,#1299,#1300,#1301),
 .UNSPECIFIED.,.F.,.F.,(4,1,4),(0.,0.00169892862353344,0.00339785724706687),
 .UNSPECIFIED.);
#15=B_SPLINE_CURVE_WITH_KNOTS('',3,(#1307,#1308,#1309,#1310,#1311),
 .UNSPECIFIED.,.F.,.F.,(4,1,4),(0.,0.00169737554930876,0.00339475109861751),
 .UNSPECIFIED.);
#16=TOROIDAL_SURFACE('',#822,0.0185363456392283,0.00217279);
#17=TOROIDAL_SURFACE('',#823,0.00552720983944622,0.00217279);
#18=TOROIDAL_SURFACE('',#829,0.00552659514252124,0.00217279);
#19=TOROIDAL_SURFACE('',#831,0.00558106037722899,0.00217279);
#20=TOROIDAL_SURFACE('',#836,0.00552720983944622,0.00217279);
#21=TOROIDAL_SURFACE('',#838,0.00558106037722899,0.00217279);
#22=TOROIDAL_SURFACE('',#843,0.0185363456392283,0.00217279);
#23=TOROIDAL_SURFACE('',#844,0.00552659514252124,0.00217279);
#24=CYLINDRICAL_SURFACE('',#770,0.00769938514252124);
#25=CYLINDRICAL_SURFACE('',#774,0.0207091356392283);
#26=CYLINDRICAL_SURFACE('',#777,0.00769999983944622);
#27=CYLINDRICAL_SURFACE('',#781,0.0180091356392282);
#28=CYLINDRICAL_SURFACE('',#783,0.00505385037722901);
#29=CYLINDRICAL_SURFACE('',#786,0.004999999678834);
#30=CYLINDRICAL_SURFACE('',#788,0.00499938514252123);
#31=CYLINDRICAL_SURFACE('',#791,0.017492390983301);
#32=CYLINDRICAL_SURFACE('',#795,0.004999999678834);
#33=CYLINDRICAL_SURFACE('',#797,0.00775385037722899);
#34=CYLINDRICAL_SURFACE('',#807,0.004999999678834);
#35=CYLINDRICAL_SURFACE('',#816,0.00204695107080363);
#36=CYLINDRICAL_SURFACE('',#818,0.00194372759027813);
#37=CYLINDRICAL_SURFACE('',#819,0.00217279);
#38=CYLINDRICAL_SURFACE('',#825,0.00217279);
#39=CYLINDRICAL_SURFACE('',#827,0.00217279);
#40=CYLINDRICAL_SURFACE('',#832,0.00217279);
#41=CYLINDRICAL_SURFACE('',#833,0.00217279);
#42=CYLINDRICAL_SURFACE('',#839,0.00217279);
#43=CYLINDRICAL_SURFACE('',#841,0.00217279);
#44=CYLINDRICAL_SURFACE('',#846,0.00217279);
#45=CIRCLE('',#759,0.00204695107080363);
#46=CIRCLE('',#760,0.00194372759027813);
#47=CIRCLE('',#762,0.00204695107080363);
#48=CIRCLE('',#763,0.00194372759027813);
#49=CIRCLE('',#765,0.004999999678834);
#50=CIRCLE('',#766,0.004999999678834);
#51=CIRCLE('',#767,0.0180091356392282);
#52=CIRCLE('',#768,0.004999999678834);
#53=CIRCLE('',#771,0.00769938514252124);
#54=CIRCLE('',#772,0.00769938514252124);
#55=CIRCLE('',#775,0.0207091356392283);
#56=CIRCLE('',#776,0.0207091356392283);
#57=CIRCLE('',#778,0.00769999983944622);
#58=CIRCLE('',#779,0.00769999983944622);
#59=CIRCLE('',#782,0.0180091356392282);
#60=CIRCLE('',#784,0.00505385037722901);
#61=CIRCLE('',#785,0.00505385037722901);
#62=CIRCLE('',#787,0.004999999678834);
#63=CIRCLE('',#789,0.00499938514252123);
#64=CIRCLE('',#790,0.00499938514252123);
#65=CIRCLE('',#792,0.017492390983301);
#66=CIRCLE('',#793,0.017492390983301);
#67=CIRCLE('',#796,0.004999999678834);
#68=CIRCLE('',#798,0.00775385037722899);
#69=CIRCLE('',#799,0.00775385037722899);
#70=CIRCLE('',#801,0.00552659514252124);
#71=CIRCLE('',#802,0.0185363456392283);
#72=CIRCLE('',#803,0.00552720983944622);
#73=CIRCLE('',#804,0.00558106037722899);
#74=CIRCLE('',#808,0.004999999678834);
#75=CIRCLE('',#811,0.00552659514252124);
#76=CIRCLE('',#812,0.00558106037722899);
#77=CIRCLE('',#813,0.00552720983944622);
#78=CIRCLE('',#814,0.0185363456392283);
#79=CIRCLE('',#820,0.00217279);
#80=CIRCLE('',#821,0.00217279);
#81=CIRCLE('',#824,0.00217279);
#82=CIRCLE('',#826,0.00217279);
#83=CIRCLE('',#828,0.00217279);
#84=CIRCLE('',#830,0.00217279);
#85=CIRCLE('',#834,0.00217279);
#86=CIRCLE('',#835,0.00217279);
#87=CIRCLE('',#837,0.00217279);
#88=CIRCLE('',#840,0.00217279);
#89=CIRCLE('',#842,0.00217279);
#90=CIRCLE('',#845,0.00217279);
#91=ORIENTED_EDGE('',*,*,#305,.F.);
#92=ORIENTED_EDGE('',*,*,#306,.T.);
#93=ORIENTED_EDGE('',*,*,#307,.T.);
#94=ORIENTED_EDGE('',*,*,#308,.T.);
#95=ORIENTED_EDGE('',*,*,#309,.F.);
#96=ORIENTED_EDGE('',*,*,#310,.T.);
#97=ORIENTED_EDGE('',*,*,#311,.F.);
#98=ORIENTED_EDGE('',*,*,#312,.F.);
#99=ORIENTED_EDGE('',*,*,#313,.T.);
#100=ORIENTED_EDGE('',*,*,#314,.F.);
#101=ORIENTED_EDGE('',*,*,#315,.F.);
#102=ORIENTED_EDGE('',*,*,#316,.T.);
#103=ORIENTED_EDGE('',*,*,#317,.F.);
#104=ORIENTED_EDGE('',*,*,#318,.T.);
#105=ORIENTED_EDGE('',*,*,#319,.T.);
#106=ORIENTED_EDGE('',*,*,#320,.T.);
#107=ORIENTED_EDGE('',*,*,#321,.F.);
#108=ORIENTED_EDGE('',*,*,#322,.F.);
#109=ORIENTED_EDGE('',*,*,#323,.F.);
#110=ORIENTED_EDGE('',*,*,#324,.F.);
#111=ORIENTED_EDGE('',*,*,#325,.F.);
#112=ORIENTED_EDGE('',*,*,#313,.F.);
#113=ORIENTED_EDGE('',*,*,#326,.F.);
#114=ORIENTED_EDGE('',*,*,#327,.F.);
#115=ORIENTED_EDGE('',*,*,#328,.F.);
#116=ORIENTED_EDGE('',*,*,#329,.F.);
#117=ORIENTED_EDGE('',*,*,#330,.T.);
#118=ORIENTED_EDGE('',*,*,#331,.T.);
#119=ORIENTED_EDGE('',*,*,#332,.T.);
#120=ORIENTED_EDGE('',*,*,#333,.F.);
#121=ORIENTED_EDGE('',*,*,#334,.T.);
#122=ORIENTED_EDGE('',*,*,#329,.T.);
#123=ORIENTED_EDGE('',*,*,#335,.T.);
#124=ORIENTED_EDGE('',*,*,#336,.F.);
#125=ORIENTED_EDGE('',*,*,#337,.T.);
#126=ORIENTED_EDGE('',*,*,#333,.T.);
#127=ORIENTED_EDGE('',*,*,#338,.T.);
#128=ORIENTED_EDGE('',*,*,#307,.F.);
#129=ORIENTED_EDGE('',*,*,#339,.T.);
#130=ORIENTED_EDGE('',*,*,#336,.T.);
#131=ORIENTED_EDGE('',*,*,#340,.T.);
#132=ORIENTED_EDGE('',*,*,#341,.F.);
#133=ORIENTED_EDGE('',*,*,#342,.T.);
#134=ORIENTED_EDGE('',*,*,#305,.T.);
#135=ORIENTED_EDGE('',*,*,#343,.T.);
#136=ORIENTED_EDGE('',*,*,#344,.F.);
#137=ORIENTED_EDGE('',*,*,#345,.T.);
#138=ORIENTED_EDGE('',*,*,#341,.T.);
#139=ORIENTED_EDGE('',*,*,#346,.T.);
#140=ORIENTED_EDGE('',*,*,#326,.T.);
#141=ORIENTED_EDGE('',*,*,#347,.F.);
#142=ORIENTED_EDGE('',*,*,#348,.F.);
#143=ORIENTED_EDGE('',*,*,#349,.T.);
#144=ORIENTED_EDGE('',*,*,#350,.T.);
#145=ORIENTED_EDGE('',*,*,#351,.F.);
#146=ORIENTED_EDGE('',*,*,#352,.F.);
#147=ORIENTED_EDGE('',*,*,#353,.T.);
#148=ORIENTED_EDGE('',*,*,#354,.F.);
#149=ORIENTED_EDGE('',*,*,#355,.T.);
#150=ORIENTED_EDGE('',*,*,#323,.T.);
#151=ORIENTED_EDGE('',*,*,#356,.F.);
#152=ORIENTED_EDGE('',*,*,#357,.F.);
#153=ORIENTED_EDGE('',*,*,#354,.T.);
#154=ORIENTED_EDGE('',*,*,#358,.T.);
#155=ORIENTED_EDGE('',*,*,#359,.F.);
#156=ORIENTED_EDGE('',*,*,#360,.F.);
#157=ORIENTED_EDGE('',*,*,#361,.T.);
#158=ORIENTED_EDGE('',*,*,#362,.F.);
#159=ORIENTED_EDGE('',*,*,#363,.T.);
#160=ORIENTED_EDGE('',*,*,#347,.T.);
#161=ORIENTED_EDGE('',*,*,#316,.F.);
#162=ORIENTED_EDGE('',*,*,#364,.F.);
#163=ORIENTED_EDGE('',*,*,#365,.T.);
#164=ORIENTED_EDGE('',*,*,#349,.F.);
#165=ORIENTED_EDGE('',*,*,#366,.T.);
#166=ORIENTED_EDGE('',*,*,#322,.T.);
#167=ORIENTED_EDGE('',*,*,#350,.F.);
#168=ORIENTED_EDGE('',*,*,#367,.F.);
#169=ORIENTED_EDGE('',*,*,#356,.T.);
#170=ORIENTED_EDGE('',*,*,#328,.T.);
#171=ORIENTED_EDGE('',*,*,#358,.F.);
#172=ORIENTED_EDGE('',*,*,#368,.F.);
#173=ORIENTED_EDGE('',*,*,#362,.T.);
#174=ORIENTED_EDGE('',*,*,#331,.F.);
#175=ORIENTED_EDGE('',*,*,#369,.T.);
#176=ORIENTED_EDGE('',*,*,#344,.T.);
#177=ORIENTED_EDGE('',*,*,#370,.T.);
#178=ORIENTED_EDGE('',*,*,#371,.T.);
#179=ORIENTED_EDGE('',*,*,#372,.T.);
#180=ORIENTED_EDGE('',*,*,#373,.T.);
#181=ORIENTED_EDGE('',*,*,#374,.T.);
#182=ORIENTED_EDGE('',*,*,#375,.T.);
#183=ORIENTED_EDGE('',*,*,#376,.T.);
#184=ORIENTED_EDGE('',*,*,#377,.T.);
#185=ORIENTED_EDGE('',*,*,#378,.T.);
#186=ORIENTED_EDGE('',*,*,#363,.F.);
#187=ORIENTED_EDGE('',*,*,#368,.T.);
#188=ORIENTED_EDGE('',*,*,#355,.F.);
#189=ORIENTED_EDGE('',*,*,#357,.T.);
#190=ORIENTED_EDGE('',*,*,#367,.T.);
#191=ORIENTED_EDGE('',*,*,#348,.T.);
#192=ORIENTED_EDGE('',*,*,#366,.F.);
#193=ORIENTED_EDGE('',*,*,#321,.T.);
#194=ORIENTED_EDGE('',*,*,#361,.F.);
#195=ORIENTED_EDGE('',*,*,#379,.F.);
#196=ORIENTED_EDGE('',*,*,#351,.T.);
#197=ORIENTED_EDGE('',*,*,#324,.T.);
#198=ORIENTED_EDGE('',*,*,#353,.F.);
#199=ORIENTED_EDGE('',*,*,#380,.F.);
#200=ORIENTED_EDGE('',*,*,#381,.T.);
#201=ORIENTED_EDGE('',*,*,#325,.T.);
#202=ORIENTED_EDGE('',*,*,#381,.F.);
#203=ORIENTED_EDGE('',*,*,#382,.F.);
#204=ORIENTED_EDGE('',*,*,#314,.T.);
#205=ORIENTED_EDGE('',*,*,#327,.T.);
#206=ORIENTED_EDGE('',*,*,#365,.F.);
#207=ORIENTED_EDGE('',*,*,#383,.F.);
#208=ORIENTED_EDGE('',*,*,#359,.T.);
#209=ORIENTED_EDGE('',*,*,#384,.T.);
#210=ORIENTED_EDGE('',*,*,#385,.T.);
#211=ORIENTED_EDGE('',*,*,#386,.T.);
#212=ORIENTED_EDGE('',*,*,#387,.T.);
#213=ORIENTED_EDGE('',*,*,#388,.T.);
#214=ORIENTED_EDGE('',*,*,#389,.T.);
#215=ORIENTED_EDGE('',*,*,#390,.T.);
#216=ORIENTED_EDGE('',*,*,#391,.T.);
#217=ORIENTED_EDGE('',*,*,#360,.T.);
#218=ORIENTED_EDGE('',*,*,#383,.T.);
#219=ORIENTED_EDGE('',*,*,#364,.T.);
#220=ORIENTED_EDGE('',*,*,#315,.T.);
#221=ORIENTED_EDGE('',*,*,#382,.T.);
#222=ORIENTED_EDGE('',*,*,#380,.T.);
#223=ORIENTED_EDGE('',*,*,#352,.T.);
#224=ORIENTED_EDGE('',*,*,#379,.T.);
#225=ORIENTED_EDGE('',*,*,#317,.T.);
#226=ORIENTED_EDGE('',*,*,#392,.T.);
#227=ORIENTED_EDGE('',*,*,#310,.F.);
#228=ORIENTED_EDGE('',*,*,#393,.F.);
#229=ORIENTED_EDGE('',*,*,#393,.T.);
#230=ORIENTED_EDGE('',*,*,#309,.T.);
#231=ORIENTED_EDGE('',*,*,#394,.F.);
#232=ORIENTED_EDGE('',*,*,#318,.F.);
#233=ORIENTED_EDGE('',*,*,#394,.T.);
#234=ORIENTED_EDGE('',*,*,#312,.T.);
#235=ORIENTED_EDGE('',*,*,#395,.F.);
#236=ORIENTED_EDGE('',*,*,#319,.F.);
#237=ORIENTED_EDGE('',*,*,#395,.T.);
#238=ORIENTED_EDGE('',*,*,#311,.T.);
#239=ORIENTED_EDGE('',*,*,#392,.F.);
#240=ORIENTED_EDGE('',*,*,#320,.F.);
#241=ORIENTED_EDGE('',*,*,#396,.F.);
#242=ORIENTED_EDGE('',*,*,#308,.F.);
#243=ORIENTED_EDGE('',*,*,#397,.F.);
#244=ORIENTED_EDGE('',*,*,#389,.F.);
#245=ORIENTED_EDGE('',*,*,#397,.T.);
#246=ORIENTED_EDGE('',*,*,#340,.F.);
#247=ORIENTED_EDGE('',*,*,#398,.F.);
#248=ORIENTED_EDGE('',*,*,#390,.F.);
#249=ORIENTED_EDGE('',*,*,#396,.T.);
#250=ORIENTED_EDGE('',*,*,#388,.F.);
#251=ORIENTED_EDGE('',*,*,#399,.F.);
#252=ORIENTED_EDGE('',*,*,#343,.F.);
#253=ORIENTED_EDGE('',*,*,#398,.T.);
#254=ORIENTED_EDGE('',*,*,#338,.F.);
#255=ORIENTED_EDGE('',*,*,#400,.F.);
#256=ORIENTED_EDGE('',*,*,#391,.F.);
#257=ORIENTED_EDGE('',*,*,#399,.T.);
#258=ORIENTED_EDGE('',*,*,#387,.F.);
#259=ORIENTED_EDGE('',*,*,#401,.F.);
#260=ORIENTED_EDGE('',*,*,#346,.F.);
#261=ORIENTED_EDGE('',*,*,#400,.T.);
#262=ORIENTED_EDGE('',*,*,#335,.F.);
#263=ORIENTED_EDGE('',*,*,#402,.F.);
#264=ORIENTED_EDGE('',*,*,#384,.F.);
#265=ORIENTED_EDGE('',*,*,#401,.T.);
#266=ORIENTED_EDGE('',*,*,#386,.F.);
#267=ORIENTED_EDGE('',*,*,#403,.F.);
#268=ORIENTED_EDGE('',*,*,#370,.F.);
#269=ORIENTED_EDGE('',*,*,#402,.T.);
#270=ORIENTED_EDGE('',*,*,#332,.F.);
#271=ORIENTED_EDGE('',*,*,#403,.T.);
#272=ORIENTED_EDGE('',*,*,#385,.F.);
#273=ORIENTED_EDGE('',*,*,#404,.F.);
#274=ORIENTED_EDGE('',*,*,#376,.F.);
#275=ORIENTED_EDGE('',*,*,#405,.F.);
#276=ORIENTED_EDGE('',*,*,#345,.F.);
#277=ORIENTED_EDGE('',*,*,#405,.T.);
#278=ORIENTED_EDGE('',*,*,#375,.F.);
#279=ORIENTED_EDGE('',*,*,#406,.F.);
#280=ORIENTED_EDGE('',*,*,#342,.F.);
#281=ORIENTED_EDGE('',*,*,#404,.T.);
#282=ORIENTED_EDGE('',*,*,#369,.F.);
#283=ORIENTED_EDGE('',*,*,#407,.F.);
#284=ORIENTED_EDGE('',*,*,#377,.F.);
#285=ORIENTED_EDGE('',*,*,#406,.T.);
#286=ORIENTED_EDGE('',*,*,#374,.F.);
#287=ORIENTED_EDGE('',*,*,#408,.F.);
#288=ORIENTED_EDGE('',*,*,#306,.F.);
#289=ORIENTED_EDGE('',*,*,#407,.T.);
#290=ORIENTED_EDGE('',*,*,#330,.F.);
#291=ORIENTED_EDGE('',*,*,#409,.F.);
#292=ORIENTED_EDGE('',*,*,#378,.F.);
#293=ORIENTED_EDGE('',*,*,#408,.T.);
#294=ORIENTED_EDGE('',*,*,#373,.F.);
#295=ORIENTED_EDGE('',*,*,#410,.F.);
#296=ORIENTED_EDGE('',*,*,#339,.F.);
#297=ORIENTED_EDGE('',*,*,#409,.T.);
#298=ORIENTED_EDGE('',*,*,#334,.F.);
#299=ORIENTED_EDGE('',*,*,#411,.F.);
#300=ORIENTED_EDGE('',*,*,#371,.F.);
#301=ORIENTED_EDGE('',*,*,#410,.T.);
#302=ORIENTED_EDGE('',*,*,#372,.F.);
#303=ORIENTED_EDGE('',*,*,#411,.T.);
#304=ORIENTED_EDGE('',*,*,#337,.F.);
#305=EDGE_CURVE('',#412,#413,#476,.T.);
#306=EDGE_CURVE('',#412,#414,#477,.T.);
#307=EDGE_CURVE('',#414,#415,#478,.T.);
#308=EDGE_CURVE('',#415,#413,#479,.F.);
#309=EDGE_CURVE('',#416,#417,#45,.T.);
#310=EDGE_CURVE('',#416,#418,#480,.T.);
#311=EDGE_CURVE('',#419,#418,#46,.T.);
#312=EDGE_CURVE('',#417,#419,#481,.T.);
#313=EDGE_CURVE('',#420,#421,#482,.F.);
#314=EDGE_CURVE('',#422,#421,#483,.T.);
#315=EDGE_CURVE('',#423,#422,#484,.F.);
#316=EDGE_CURVE('',#423,#420,#485,.T.);
#317=EDGE_CURVE('',#424,#425,#486,.T.);
#318=EDGE_CURVE('',#424,#426,#47,.T.);
#319=EDGE_CURVE('',#426,#427,#487,.T.);
#320=EDGE_CURVE('',#427,#425,#48,.T.);
#321=EDGE_CURVE('',#428,#429,#488,.T.);
#322=EDGE_CURVE('',#430,#428,#489,.T.);
#323=EDGE_CURVE('',#431,#430,#49,.T.);
#324=EDGE_CURVE('',#432,#431,#490,.T.);
#325=EDGE_CURVE('',#421,#432,#50,.T.);
#326=EDGE_CURVE('',#433,#420,#51,.T.);
#327=EDGE_CURVE('',#434,#433,#491,.T.);
#328=EDGE_CURVE('',#429,#434,#52,.T.);
#329=EDGE_CURVE('',#435,#436,#492,.T.);
#330=EDGE_CURVE('',#435,#437,#493,.T.);
#331=EDGE_CURVE('',#437,#438,#494,.T.);
#332=EDGE_CURVE('',#438,#436,#495,.F.);
#333=EDGE_CURVE('',#439,#440,#496,.T.);
#334=EDGE_CURVE('',#439,#435,#53,.F.);
#335=EDGE_CURVE('',#436,#440,#54,.T.);
#336=EDGE_CURVE('',#441,#442,#497,.T.);
#337=EDGE_CURVE('',#441,#439,#498,.T.);
#338=EDGE_CURVE('',#440,#442,#499,.F.);
#339=EDGE_CURVE('',#414,#441,#55,.F.);
#340=EDGE_CURVE('',#442,#415,#56,.T.);
#341=EDGE_CURVE('',#443,#444,#500,.T.);
#342=EDGE_CURVE('',#443,#412,#57,.F.);
#343=EDGE_CURVE('',#413,#444,#58,.T.);
#344=EDGE_CURVE('',#445,#446,#501,.T.);
#345=EDGE_CURVE('',#445,#443,#502,.F.);
#346=EDGE_CURVE('',#444,#446,#503,.T.);
#347=EDGE_CURVE('',#447,#420,#504,.T.);
#348=EDGE_CURVE('',#448,#447,#59,.T.);
#349=EDGE_CURVE('',#448,#433,#505,.T.);
#350=EDGE_CURVE('',#449,#428,#506,.T.);
#351=EDGE_CURVE('',#450,#428,#507,.T.);
#352=EDGE_CURVE('',#451,#450,#60,.T.);
#353=EDGE_CURVE('',#451,#431,#508,.T.);
#354=EDGE_CURVE('',#452,#431,#509,.T.);
#355=EDGE_CURVE('',#452,#449,#61,.T.);
#356=EDGE_CURVE('',#453,#430,#510,.T.);
#357=EDGE_CURVE('',#452,#453,#62,.T.);
#358=EDGE_CURVE('',#454,#434,#511,.T.);
#359=EDGE_CURVE('',#455,#434,#512,.T.);
#360=EDGE_CURVE('',#456,#455,#63,.T.);
#361=EDGE_CURVE('',#456,#429,#513,.T.);
#362=EDGE_CURVE('',#457,#429,#514,.T.);
#363=EDGE_CURVE('',#457,#454,#64,.T.);
#364=EDGE_CURVE('',#458,#423,#65,.T.);
#365=EDGE_CURVE('',#458,#433,#515,.T.);
#366=EDGE_CURVE('',#448,#447,#66,.T.);
#367=EDGE_CURVE('',#453,#449,#516,.T.);
#368=EDGE_CURVE('',#457,#454,#67,.T.);
#369=EDGE_CURVE('',#437,#445,#68,.F.);
#370=EDGE_CURVE('',#446,#438,#69,.T.);
#371=EDGE_CURVE('',#459,#460,#70,.T.);
#372=EDGE_CURVE('',#460,#461,#517,.F.);
#373=EDGE_CURVE('',#461,#462,#71,.T.);
#374=EDGE_CURVE('',#462,#463,#518,.F.);
#375=EDGE_CURVE('',#463,#464,#72,.T.);
#376=EDGE_CURVE('',#464,#465,#519,.T.);
#377=EDGE_CURVE('',#465,#466,#73,.T.);
#378=EDGE_CURVE('',#466,#459,#520,.F.);
#379=EDGE_CURVE('',#450,#456,#521,.T.);
#380=EDGE_CURVE('',#467,#451,#522,.T.);
#381=EDGE_CURVE('',#467,#432,#523,.T.);
#382=EDGE_CURVE('',#422,#467,#74,.T.);
#383=EDGE_CURVE('',#455,#458,#524,.T.);
#384=EDGE_CURVE('',#468,#469,#75,.F.);
#385=EDGE_CURVE('',#469,#470,#525,.T.);
#386=EDGE_CURVE('',#470,#471,#76,.F.);
#387=EDGE_CURVE('',#471,#472,#526,.F.);
#388=EDGE_CURVE('',#472,#473,#77,.F.);
#389=EDGE_CURVE('',#473,#474,#527,.T.);
#390=EDGE_CURVE('',#474,#475,#78,.F.);
#391=EDGE_CURVE('',#475,#468,#528,.T.);
#392=EDGE_CURVE('',#425,#418,#529,.T.);
#393=EDGE_CURVE('',#424,#416,#530,.T.);
#394=EDGE_CURVE('',#426,#417,#531,.T.);
#395=EDGE_CURVE('',#427,#419,#532,.T.);
#396=EDGE_CURVE('',#413,#473,#79,.T.);
#397=EDGE_CURVE('',#474,#415,#80,.T.);
#398=EDGE_CURVE('',#475,#442,#12,.F.);
#399=EDGE_CURVE('',#444,#472,#81,.T.);
#400=EDGE_CURVE('',#468,#440,#82,.T.);
#401=EDGE_CURVE('',#446,#471,#83,.T.);
#402=EDGE_CURVE('',#469,#436,#84,.T.);
#403=EDGE_CURVE('',#438,#470,#13,.T.);
#404=EDGE_CURVE('',#465,#445,#85,.T.);
#405=EDGE_CURVE('',#443,#464,#86,.T.);
#406=EDGE_CURVE('',#412,#463,#87,.T.);
#407=EDGE_CURVE('',#466,#437,#14,.F.);
#408=EDGE_CURVE('',#414,#462,#88,.T.);
#409=EDGE_CURVE('',#459,#435,#89,.T.);
#410=EDGE_CURVE('',#441,#461,#15,.T.);
#411=EDGE_CURVE('',#460,#439,#90,.T.);
#412=VERTEX_POINT('',#1087);
#413=VERTEX_POINT('',#1088);
#414=VERTEX_POINT('',#1090);
#415=VERTEX_POINT('',#1092);
#416=VERTEX_POINT('',#1095);
#417=VERTEX_POINT('',#1096);
#418=VERTEX_POINT('',#1098);
#419=VERTEX_POINT('',#1100);
#420=VERTEX_POINT('',#1104);
#421=VERTEX_POINT('',#1105);
#422=VERTEX_POINT('',#1107);
#423=VERTEX_POINT('',#1109);
#424=VERTEX_POINT('',#1112);
#425=VERTEX_POINT('',#1113);
#426=VERTEX_POINT('',#1115);
#427=VERTEX_POINT('',#1117);
#428=VERTEX_POINT('',#1121);
#429=VERTEX_POINT('',#1122);
#430=VERTEX_POINT('',#1124);
#431=VERTEX_POINT('',#1126);
#432=VERTEX_POINT('',#1128);
#433=VERTEX_POINT('',#1131);
#434=VERTEX_POINT('',#1133);
#435=VERTEX_POINT('',#1137);
#436=VERTEX_POINT('',#1138);
#437=VERTEX_POINT('',#1140);
#438=VERTEX_POINT('',#1142);
#439=VERTEX_POINT('',#1146);
#440=VERTEX_POINT('',#1147);
#441=VERTEX_POINT('',#1152);
#442=VERTEX_POINT('',#1153);
#443=VERTEX_POINT('',#1161);
#444=VERTEX_POINT('',#1162);
#445=VERTEX_POINT('',#1167);
#446=VERTEX_POINT('',#1168);
#447=VERTEX_POINT('',#1173);
#448=VERTEX_POINT('',#1175);
#449=VERTEX_POINT('',#1179);
#450=VERTEX_POINT('',#1181);
#451=VERTEX_POINT('',#1183);
#452=VERTEX_POINT('',#1186);
#453=VERTEX_POINT('',#1190);
#454=VERTEX_POINT('',#1194);
#455=VERTEX_POINT('',#1196);
#456=VERTEX_POINT('',#1198);
#457=VERTEX_POINT('',#1201);
#458=VERTEX_POINT('',#1205);
#459=VERTEX_POINT('',#1217);
#460=VERTEX_POINT('',#1218);
#461=VERTEX_POINT('',#1220);
#462=VERTEX_POINT('',#1222);
#463=VERTEX_POINT('',#1224);
#464=VERTEX_POINT('',#1226);
#465=VERTEX_POINT('',#1228);
#466=VERTEX_POINT('',#1230);
#467=VERTEX_POINT('',#1236);
#468=VERTEX_POINT('',#1244);
#469=VERTEX_POINT('',#1245);
#470=VERTEX_POINT('',#1247);
#471=VERTEX_POINT('',#1249);
#472=VERTEX_POINT('',#1251);
#473=VERTEX_POINT('',#1253);
#474=VERTEX_POINT('',#1255);
#475=VERTEX_POINT('',#1257);
#476=LINE('',#1086,#533);
#477=LINE('',#1089,#534);
#478=LINE('',#1091,#535);
#479=LINE('',#1093,#536);
#480=LINE('',#1097,#537);
#481=LINE('',#1101,#538);
#482=LINE('',#1103,#539);
#483=LINE('',#1106,#540);
#484=LINE('',#1108,#541);
#485=LINE('',#1110,#542);
#486=LINE('',#1111,#543);
#487=LINE('',#1116,#544);
#488=LINE('',#1120,#545);
#489=LINE('',#1123,#546);
#490=LINE('',#1127,#547);
#491=LINE('',#1132,#548);
#492=LINE('',#1136,#549);
#493=LINE('',#1139,#550);
#494=LINE('',#1141,#551);
#495=LINE('',#1143,#552);
#496=LINE('',#1145,#553);
#497=LINE('',#1151,#554);
#498=LINE('',#1154,#555);
#499=LINE('',#1155,#556);
#500=LINE('',#1160,#557);
#501=LINE('',#1166,#558);
#502=LINE('',#1169,#559);
#503=LINE('',#1170,#560);
#504=LINE('',#1172,#561);
#505=LINE('',#1176,#562);
#506=LINE('',#1178,#563);
#507=LINE('',#1180,#564);
#508=LINE('',#1184,#565);
#509=LINE('',#1185,#566);
#510=LINE('',#1189,#567);
#511=LINE('',#1193,#568);
#512=LINE('',#1195,#569);
#513=LINE('',#1199,#570);
#514=LINE('',#1200,#571);
#515=LINE('',#1206,#572);
#516=LINE('',#1209,#573);
#517=LINE('',#1219,#574);
#518=LINE('',#1223,#575);
#519=LINE('',#1227,#576);
#520=LINE('',#1231,#577);
#521=LINE('',#1233,#578);
#522=LINE('',#1235,#579);
#523=LINE('',#1237,#580);
#524=LINE('',#1241,#581);
#525=LINE('',#1246,#582);
#526=LINE('',#1250,#583);
#527=LINE('',#1254,#584);
#528=LINE('',#1258,#585);
#529=LINE('',#1260,#586);
#530=LINE('',#1261,#587);
#531=LINE('',#1263,#588);
#532=LINE('',#1265,#589);
#533=VECTOR('',#851,1.);
#534=VECTOR('',#852,1.);
#535=VECTOR('',#853,1.);
#536=VECTOR('',#854,1.);
#537=VECTOR('',#857,1.);
#538=VECTOR('',#860,1.);
#539=VECTOR('',#863,1.);
#540=VECTOR('',#864,1.);
#541=VECTOR('',#865,1.);
#542=VECTOR('',#866,1.);
#543=VECTOR('',#867,1.);
#544=VECTOR('',#870,1.);
#545=VECTOR('',#875,1.);
#546=VECTOR('',#876,1.);
#547=VECTOR('',#879,1.);
#548=VECTOR('',#884,1.);
#549=VECTOR('',#889,1.);
#550=VECTOR('',#890,1.);
#551=VECTOR('',#891,1.);
#552=VECTOR('',#892,1.);
#553=VECTOR('',#895,1.);
#554=VECTOR('',#902,1.);
#555=VECTOR('',#903,1.);
#556=VECTOR('',#904,1.);
#557=VECTOR('',#913,1.);
#558=VECTOR('',#920,1.);
#559=VECTOR('',#921,1.);
#560=VECTOR('',#922,1.);
#561=VECTOR('',#925,1.);
#562=VECTOR('',#928,1.);
#563=VECTOR('',#931,1.);
#564=VECTOR('',#932,1.);
#565=VECTOR('',#935,1.);
#566=VECTOR('',#936,1.);
#567=VECTOR('',#941,1.);
#568=VECTOR('',#946,1.);
#569=VECTOR('',#947,1.);
#570=VECTOR('',#950,1.);
#571=VECTOR('',#951,1.);
#572=VECTOR('',#958,1.);
#573=VECTOR('',#963,1.);
#574=VECTOR('',#978,1.);
#575=VECTOR('',#981,1.);
#576=VECTOR('',#984,1.);
#577=VECTOR('',#987,1.);
#578=VECTOR('',#990,1.);
#579=VECTOR('',#993,1.);
#580=VECTOR('',#994,1.);
#581=VECTOR('',#1001,1.);
#582=VECTOR('',#1006,1.);
#583=VECTOR('',#1009,1.);
#584=VECTOR('',#1012,1.);
#585=VECTOR('',#1015,1.);
#586=VECTOR('',#1018,1.);
#587=VECTOR('',#1019,1.);
#588=VECTOR('',#1022,1.);
#589=VECTOR('',#1025,1.);
#590=EDGE_LOOP('',(#91,#92,#93,#94));
#591=EDGE_LOOP('',(#95,#96,#97,#98));
#592=EDGE_LOOP('',(#99,#100,#101,#102));
#593=EDGE_LOOP('',(#103,#104,#105,#106));
#594=EDGE_LOOP('',(#107,#108,#109,#110,#111,#112,#113,#114,#115));
#595=EDGE_LOOP('',(#116,#117,#118,#119));
#596=EDGE_LOOP('',(#120,#121,#122,#123));
#597=EDGE_LOOP('',(#124,#125,#126,#127));
#598=EDGE_LOOP('',(#128,#129,#130,#131));
#599=EDGE_LOOP('',(#132,#133,#134,#135));
#600=EDGE_LOOP('',(#136,#137,#138,#139));
#601=EDGE_LOOP('',(#140,#141,#142,#143));
#602=EDGE_LOOP('',(#144,#145,#146,#147,#148,#149));
#603=EDGE_LOOP('',(#150,#151,#152,#153));
#604=EDGE_LOOP('',(#154,#155,#156,#157,#158,#159));
#605=EDGE_LOOP('',(#160,#161,#162,#163,#164,#165));
#606=EDGE_LOOP('',(#166,#167,#168,#169));
#607=EDGE_LOOP('',(#170,#171,#172,#173));
#608=EDGE_LOOP('',(#174,#175,#176,#177));
#609=EDGE_LOOP('',(#178,#179,#180,#181,#182,#183,#184,#185));
#610=EDGE_LOOP('',(#186,#187));
#611=EDGE_LOOP('',(#188,#189,#190));
#612=EDGE_LOOP('',(#191,#192));
#613=EDGE_LOOP('',(#193,#194,#195,#196));
#614=EDGE_LOOP('',(#197,#198,#199,#200));
#615=EDGE_LOOP('',(#201,#202,#203,#204));
#616=EDGE_LOOP('',(#205,#206,#207,#208));
#617=EDGE_LOOP('',(#209,#210,#211,#212,#213,#214,#215,#216));
#618=EDGE_LOOP('',(#217,#218,#219,#220,#221,#222,#223,#224));
#619=EDGE_LOOP('',(#225,#226,#227,#228));
#620=EDGE_LOOP('',(#229,#230,#231,#232));
#621=EDGE_LOOP('',(#233,#234,#235,#236));
#622=EDGE_LOOP('',(#237,#238,#239,#240));
#623=EDGE_LOOP('',(#241,#242,#243,#244));
#624=EDGE_LOOP('',(#245,#246,#247,#248));
#625=EDGE_LOOP('',(#249,#250,#251,#252));
#626=EDGE_LOOP('',(#253,#254,#255,#256));
#627=EDGE_LOOP('',(#257,#258,#259,#260));
#628=EDGE_LOOP('',(#261,#262,#263,#264));
#629=EDGE_LOOP('',(#265,#266,#267,#268));
#630=EDGE_LOOP('',(#269,#270,#271,#272));
#631=EDGE_LOOP('',(#273,#274,#275,#276));
#632=EDGE_LOOP('',(#277,#278,#279,#280));
#633=EDGE_LOOP('',(#281,#282,#283,#284));
#634=EDGE_LOOP('',(#285,#286,#287,#288));
#635=EDGE_LOOP('',(#289,#290,#291,#292));
#636=EDGE_LOOP('',(#293,#294,#295,#296));
#637=EDGE_LOOP('',(#297,#298,#299,#300));
#638=EDGE_LOOP('',(#301,#302,#303,#304));
#639=FACE_BOUND('',#590,.T.);
#640=FACE_BOUND('',#591,.T.);
#641=FACE_BOUND('',#592,.T.);
#642=FACE_BOUND('',#593,.T.);
#643=FACE_BOUND('',#594,.T.);
#644=FACE_BOUND('',#595,.T.);
#645=FACE_BOUND('',#596,.T.);
#646=FACE_BOUND('',#597,.T.);
#647=FACE_BOUND('',#598,.T.);
#648=FACE_BOUND('',#599,.T.);
#649=FACE_BOUND('',#600,.T.);
#650=FACE_BOUND('',#601,.T.);
#651=FACE_BOUND('',#602,.T.);
#652=FACE_BOUND('',#603,.T.);
#653=FACE_BOUND('',#604,.T.);
#654=FACE_BOUND('',#605,.T.);
#655=FACE_BOUND('',#606,.T.);
#656=FACE_BOUND('',#607,.T.);
#657=FACE_BOUND('',#608,.T.);
#658=FACE_BOUND('',#609,.T.);
#659=FACE_BOUND('',#610,.T.);
#660=FACE_BOUND('',#611,.T.);
#661=FACE_BOUND('',#612,.T.);
#662=FACE_BOUND('',#613,.T.);
#663=FACE_BOUND('',#614,.T.);
#664=FACE_BOUND('',#615,.T.);
#665=FACE_BOUND('',#616,.T.);
#666=FACE_BOUND('',#617,.T.);
#667=FACE_BOUND('',#618,.T.);
#668=FACE_BOUND('',#619,.T.);
#669=FACE_BOUND('',#620,.T.);
#670=FACE_BOUND('',#621,.T.);
#671=FACE_BOUND('',#622,.T.);
#672=FACE_BOUND('',#623,.T.);
#673=FACE_BOUND('',#624,.T.);
#674=FACE_BOUND('',#625,.T.);
#675=FACE_BOUND('',#626,.T.);
#676=FACE_BOUND('',#627,.T.);
#677=FACE_BOUND('',#628,.T.);
#678=FACE_BOUND('',#629,.T.);
#679=FACE_BOUND('',#630,.T.);
#680=FACE_BOUND('',#631,.T.);
#681=FACE_BOUND('',#632,.T.);
#682=FACE_BOUND('',#633,.T.);
#683=FACE_BOUND('',#634,.T.);
#684=FACE_BOUND('',#635,.T.);
#685=FACE_BOUND('',#636,.T.);
#686=FACE_BOUND('',#637,.T.);
#687=FACE_BOUND('',#638,.T.);
#688=PLANE('',#758);
#689=PLANE('',#761);
#690=PLANE('',#764);
#691=PLANE('',#769);
#692=PLANE('',#773);
#693=PLANE('',#780);
#694=PLANE('',#794);
#695=PLANE('',#800);
#696=PLANE('',#805);
#697=PLANE('',#806);
#698=PLANE('',#809);
#699=PLANE('',#810);
#700=PLANE('',#815);
#701=PLANE('',#817);
#702=ADVANCED_FACE('',(#639,#640),#688,.T.);
#703=ADVANCED_FACE('',(#641,#642),#689,.F.);
#704=ADVANCED_FACE('',(#643),#690,.F.);
#705=ADVANCED_FACE('',(#644),#691,.T.);
#706=ADVANCED_FACE('',(#645),#24,.T.);
#707=ADVANCED_FACE('',(#646),#692,.T.);
#708=ADVANCED_FACE('',(#647),#25,.T.);
#709=ADVANCED_FACE('',(#648),#26,.T.);
#710=ADVANCED_FACE('',(#649),#693,.F.);
#711=ADVANCED_FACE('',(#650),#27,.T.);
#712=ADVANCED_FACE('',(#651),#28,.F.);
#713=ADVANCED_FACE('',(#652),#29,.T.);
#714=ADVANCED_FACE('',(#653),#30,.F.);
#715=ADVANCED_FACE('',(#654),#31,.F.);
#716=ADVANCED_FACE('',(#655),#694,.F.);
#717=ADVANCED_FACE('',(#656),#32,.T.);
#718=ADVANCED_FACE('',(#657),#33,.T.);
#719=ADVANCED_FACE('',(#658,#659,#660,#661),#695,.T.);
#720=ADVANCED_FACE('',(#662),#696,.F.);
#721=ADVANCED_FACE('',(#663),#697,.F.);
#722=ADVANCED_FACE('',(#664),#34,.F.);
#723=ADVANCED_FACE('',(#665),#698,.F.);
#724=ADVANCED_FACE('',(#666,#667),#699,.F.);
#725=ADVANCED_FACE('',(#668),#700,.T.);
#726=ADVANCED_FACE('',(#669),#35,.F.);
#727=ADVANCED_FACE('',(#670),#701,.F.);
#728=ADVANCED_FACE('',(#671),#36,.F.);
#729=ADVANCED_FACE('',(#672),#37,.T.);
#730=ADVANCED_FACE('',(#673),#16,.T.);
#731=ADVANCED_FACE('',(#674),#17,.T.);
#732=ADVANCED_FACE('',(#675),#38,.T.);
#733=ADVANCED_FACE('',(#676),#39,.T.);
#734=ADVANCED_FACE('',(#677),#18,.T.);
#735=ADVANCED_FACE('',(#678),#19,.T.);
#736=ADVANCED_FACE('',(#679),#40,.T.);
#737=ADVANCED_FACE('',(#680),#41,.T.);
#738=ADVANCED_FACE('',(#681),#20,.T.);
#739=ADVANCED_FACE('',(#682),#21,.T.);
#740=ADVANCED_FACE('',(#683),#42,.T.);
#741=ADVANCED_FACE('',(#684),#43,.T.);
#742=ADVANCED_FACE('',(#685),#22,.T.);
#743=ADVANCED_FACE('',(#686),#23,.T.);
#744=ADVANCED_FACE('',(#687),#44,.T.);
#745=CLOSED_SHELL('',(#702,#703,#704,#705,#706,#707,#708,#709,#710,#711,
#712,#713,#714,#715,#716,#717,#718,#719,#720,#721,#722,#723,#724,#725,#726,
#727,#728,#729,#730,#731,#732,#733,#734,#735,#736,#737,#738,#739,#740,#741,
#742,#743,#744));
#746=STYLED_ITEM('',(#747),#754);
#747=PRESENTATION_STYLE_ASSIGNMENT((#748));
#748=SURFACE_STYLE_USAGE(.BOTH.,#749);
#749=SURFACE_SIDE_STYLE('',(#750));
#750=SURFACE_STYLE_FILL_AREA(#751);
#751=FILL_AREA_STYLE('',(#752));
#752=FILL_AREA_STYLE_COLOUR('',#753);
#753=COLOUR_RGB('',0.917647058823529,0.917647058823529,0.917647058823529);
#754=MANIFOLD_SOLID_BREP('Part 78',#745);
#755=SHAPE_DEFINITION_REPRESENTATION(#1321,#756);
#756=SHAPE_REPRESENTATION('Part 78',(#757),#1316);
#757=AXIS2_PLACEMENT_3D('',#1084,#847,#848);
#758=AXIS2_PLACEMENT_3D('',#1085,#849,#850);
#759=AXIS2_PLACEMENT_3D('',#1094,#855,#856);
#760=AXIS2_PLACEMENT_3D('',#1099,#858,#859);
#761=AXIS2_PLACEMENT_3D('',#1102,#861,#862);
#762=AXIS2_PLACEMENT_3D('',#1114,#868,#869);
#763=AXIS2_PLACEMENT_3D('',#1118,#871,#872);
#764=AXIS2_PLACEMENT_3D('',#1119,#873,#874);
#765=AXIS2_PLACEMENT_3D('',#1125,#877,#878);
#766=AXIS2_PLACEMENT_3D('',#1129,#880,#881);
#767=AXIS2_PLACEMENT_3D('',#1130,#882,#883);
#768=AXIS2_PLACEMENT_3D('',#1134,#885,#886);
#769=AXIS2_PLACEMENT_3D('',#1135,#887,#888);
#770=AXIS2_PLACEMENT_3D('',#1144,#893,#894);
#771=AXIS2_PLACEMENT_3D('',#1148,#896,#897);
#772=AXIS2_PLACEMENT_3D('',#1149,#898,#899);
#773=AXIS2_PLACEMENT_3D('',#1150,#900,#901);
#774=AXIS2_PLACEMENT_3D('',#1156,#905,#906);
#775=AXIS2_PLACEMENT_3D('',#1157,#907,#908);
#776=AXIS2_PLACEMENT_3D('',#1158,#909,#910);
#777=AXIS2_PLACEMENT_3D('',#1159,#911,#912);
#778=AXIS2_PLACEMENT_3D('',#1163,#914,#915);
#779=AXIS2_PLACEMENT_3D('',#1164,#916,#917);
#780=AXIS2_PLACEMENT_3D('',#1165,#918,#919);
#781=AXIS2_PLACEMENT_3D('',#1171,#923,#924);
#782=AXIS2_PLACEMENT_3D('',#1174,#926,#927);
#783=AXIS2_PLACEMENT_3D('',#1177,#929,#930);
#784=AXIS2_PLACEMENT_3D('',#1182,#933,#934);
#785=AXIS2_PLACEMENT_3D('',#1187,#937,#938);
#786=AXIS2_PLACEMENT_3D('',#1188,#939,#940);
#787=AXIS2_PLACEMENT_3D('',#1191,#942,#943);
#788=AXIS2_PLACEMENT_3D('',#1192,#944,#945);
#789=AXIS2_PLACEMENT_3D('',#1197,#948,#949);
#790=AXIS2_PLACEMENT_3D('',#1202,#952,#953);
#791=AXIS2_PLACEMENT_3D('',#1203,#954,#955);
#792=AXIS2_PLACEMENT_3D('',#1204,#956,#957);
#793=AXIS2_PLACEMENT_3D('',#1207,#959,#960);
#794=AXIS2_PLACEMENT_3D('',#1208,#961,#962);
#795=AXIS2_PLACEMENT_3D('',#1210,#964,#965);
#796=AXIS2_PLACEMENT_3D('',#1211,#966,#967);
#797=AXIS2_PLACEMENT_3D('',#1212,#968,#969);
#798=AXIS2_PLACEMENT_3D('',#1213,#970,#971);
#799=AXIS2_PLACEMENT_3D('',#1214,#972,#973);
#800=AXIS2_PLACEMENT_3D('',#1215,#974,#975);
#801=AXIS2_PLACEMENT_3D('',#1216,#976,#977);
#802=AXIS2_PLACEMENT_3D('',#1221,#979,#980);
#803=AXIS2_PLACEMENT_3D('',#1225,#982,#983);
#804=AXIS2_PLACEMENT_3D('',#1229,#985,#986);
#805=AXIS2_PLACEMENT_3D('',#1232,#988,#989);
#806=AXIS2_PLACEMENT_3D('',#1234,#991,#992);
#807=AXIS2_PLACEMENT_3D('',#1238,#995,#996);
#808=AXIS2_PLACEMENT_3D('',#1239,#997,#998);
#809=AXIS2_PLACEMENT_3D('',#1240,#999,#1000);
#810=AXIS2_PLACEMENT_3D('',#1242,#1002,#1003);
#811=AXIS2_PLACEMENT_3D('',#1243,#1004,#1005);
#812=AXIS2_PLACEMENT_3D('',#1248,#1007,#1008);
#813=AXIS2_PLACEMENT_3D('',#1252,#1010,#1011);
#814=AXIS2_PLACEMENT_3D('',#1256,#1013,#1014);
#815=AXIS2_PLACEMENT_3D('',#1259,#1016,#1017);
#816=AXIS2_PLACEMENT_3D('',#1262,#1020,#1021);
#817=AXIS2_PLACEMENT_3D('',#1264,#1023,#1024);
#818=AXIS2_PLACEMENT_3D('',#1266,#1026,#1027);
#819=AXIS2_PLACEMENT_3D('',#1267,#1028,#1029);
#820=AXIS2_PLACEMENT_3D('',#1268,#1030,#1031);
#821=AXIS2_PLACEMENT_3D('',#1269,#1032,#1033);
#822=AXIS2_PLACEMENT_3D('',#1270,#1034,#1035);
#823=AXIS2_PLACEMENT_3D('',#1276,#1036,#1037);
#824=AXIS2_PLACEMENT_3D('',#1277,#1038,#1039);
#825=AXIS2_PLACEMENT_3D('',#1278,#1040,#1041);
#826=AXIS2_PLACEMENT_3D('',#1279,#1042,#1043);
#827=AXIS2_PLACEMENT_3D('',#1280,#1044,#1045);
#828=AXIS2_PLACEMENT_3D('',#1281,#1046,#1047);
#829=AXIS2_PLACEMENT_3D('',#1282,#1048,#1049);
#830=AXIS2_PLACEMENT_3D('',#1283,#1050,#1051);
#831=AXIS2_PLACEMENT_3D('',#1284,#1052,#1053);
#832=AXIS2_PLACEMENT_3D('',#1290,#1054,#1055);
#833=AXIS2_PLACEMENT_3D('',#1291,#1056,#1057);
#834=AXIS2_PLACEMENT_3D('',#1292,#1058,#1059);
#835=AXIS2_PLACEMENT_3D('',#1293,#1060,#1061);
#836=AXIS2_PLACEMENT_3D('',#1294,#1062,#1063);
#837=AXIS2_PLACEMENT_3D('',#1295,#1064,#1065);
#838=AXIS2_PLACEMENT_3D('',#1296,#1066,#1067);
#839=AXIS2_PLACEMENT_3D('',#1302,#1068,#1069);
#840=AXIS2_PLACEMENT_3D('',#1303,#1070,#1071);
#841=AXIS2_PLACEMENT_3D('',#1304,#1072,#1073);
#842=AXIS2_PLACEMENT_3D('',#1305,#1074,#1075);
#843=AXIS2_PLACEMENT_3D('',#1306,#1076,#1077);
#844=AXIS2_PLACEMENT_3D('',#1312,#1078,#1079);
#845=AXIS2_PLACEMENT_3D('',#1313,#1080,#1081);
#846=AXIS2_PLACEMENT_3D('',#1314,#1082,#1083);
#847=DIRECTION('',(0.,0.,1.));
#848=DIRECTION('',(1.,0.,0.));
#849=DIRECTION('',(0.,0.,1.));
#850=DIRECTION('',(0.,-1.,0.));
#851=DIRECTION('',(0.,1.,0.));
#852=DIRECTION('',(1.,0.,0.));
#853=DIRECTION('',(0.,1.,0.));
#854=DIRECTION('',(1.,0.,0.));
#855=DIRECTION('',(0.,0.,1.));
#856=DIRECTION('',(0.,-1.,0.));
#857=DIRECTION('',(1.,0.,0.));
#858=DIRECTION('',(0.,0.,1.));
#859=DIRECTION('',(0.,-1.,0.));
#860=DIRECTION('',(1.,0.,0.));
#861=DIRECTION('',(0.,0.,1.));
#862=DIRECTION('',(0.,-1.,0.));
#863=DIRECTION('',(1.,0.,0.));
#864=DIRECTION('',(0.,-1.,0.));
#865=DIRECTION('',(1.,0.,0.));
#866=DIRECTION('',(0.,-1.,0.));
#867=DIRECTION('',(1.,0.,0.));
#868=DIRECTION('',(0.,0.,1.));
#869=DIRECTION('',(0.,-1.,0.));
#870=DIRECTION('',(1.,0.,0.));
#871=DIRECTION('',(0.,0.,1.));
#872=DIRECTION('',(0.,-1.,0.));
#873=DIRECTION('',(0.,-1.,0.));
#874=DIRECTION('',(1.,0.,0.));
#875=DIRECTION('',(1.,0.,0.));
#876=DIRECTION('',(1.,0.,0.));
#877=DIRECTION('',(0.,-1.,0.));
#878=DIRECTION('',(-1.,0.,0.));
#879=DIRECTION('',(0.,0.,-1.));
#880=DIRECTION('',(0.,-1.,0.));
#881=DIRECTION('',(-1.,0.,0.));
#882=DIRECTION('',(0.,-1.,0.));
#883=DIRECTION('',(-1.,0.,0.));
#884=DIRECTION('',(-0.000122994180041373,0.,0.999999992436216));
#885=DIRECTION('',(0.,-1.,0.));
#886=DIRECTION('',(-1.,0.,0.));
#887=DIRECTION('',(0.,0.,-1.));
#888=DIRECTION('',(0.,1.,0.));
#889=DIRECTION('',(0.,1.,0.));
#890=DIRECTION('',(-1.,0.,0.));
#891=DIRECTION('',(0.,1.,0.));
#892=DIRECTION('',(-1.,0.,0.));
#893=DIRECTION('',(0.,1.,0.));
#894=DIRECTION('',(1.,0.,0.));
#895=DIRECTION('',(0.,1.,0.));
#896=DIRECTION('',(0.,-1.,0.));
#897=DIRECTION('',(-1.,0.,0.));
#898=DIRECTION('',(0.,-1.,0.));
#899=DIRECTION('',(-1.,0.,0.));
#900=DIRECTION('',(0.999999992436216,0.,0.000122994180041537));
#901=DIRECTION('',(0.000122994180041537,0.,-0.999999992436216));
#902=DIRECTION('',(0.,1.,0.));
#903=DIRECTION('',(0.000122994180041537,0.,-0.999999992436216));
#904=DIRECTION('',(0.000122994180041537,0.,-0.999999992436216));
#905=DIRECTION('',(0.,1.,0.));
#906=DIRECTION('',(1.,0.,0.));
#907=DIRECTION('',(0.,-1.,0.));
#908=DIRECTION('',(-1.,0.,0.));
#909=DIRECTION('',(0.,-1.,0.));
#910=DIRECTION('',(-1.,0.,0.));
#911=DIRECTION('',(0.,1.,0.));
#912=DIRECTION('',(1.,0.,0.));
#913=DIRECTION('',(0.,1.,0.));
#914=DIRECTION('',(0.,-1.,0.));
#915=DIRECTION('',(-1.,0.,0.));
#916=DIRECTION('',(0.,-1.,0.));
#917=DIRECTION('',(-1.,0.,0.));
#918=DIRECTION('',(1.,0.,0.));
#919=DIRECTION('',(0.,-1.,0.));
#920=DIRECTION('',(0.,1.,0.));
#921=DIRECTION('',(0.,0.,-1.));
#922=DIRECTION('',(0.,0.,-1.));
#923=DIRECTION('',(0.,1.,0.));
#924=DIRECTION('',(1.,0.,0.));
#925=DIRECTION('',(0.,1.,0.));
#926=DIRECTION('',(0.,-1.,0.));
#927=DIRECTION('',(-1.,0.,0.));
#928=DIRECTION('',(0.,1.,0.));
#929=DIRECTION('',(0.,1.,0.));
#930=DIRECTION('',(1.,0.,0.));
#931=DIRECTION('',(0.,1.,0.));
#932=DIRECTION('',(0.,-1.,0.));
#933=DIRECTION('',(0.,-1.,0.));
#934=DIRECTION('',(-1.,0.,0.));
#935=DIRECTION('',(0.,-1.,0.));
#936=DIRECTION('',(0.,1.,0.));
#937=DIRECTION('',(0.,-1.,0.));
#938=DIRECTION('',(-1.,0.,0.));
#939=DIRECTION('',(0.,1.,0.));
#940=DIRECTION('',(1.,0.,0.));
#941=DIRECTION('',(0.,1.,0.));
#942=DIRECTION('',(0.,-1.,0.));
#943=DIRECTION('',(-1.,0.,0.));
#944=DIRECTION('',(0.,1.,0.));
#945=DIRECTION('',(1.,0.,0.));
#946=DIRECTION('',(0.,1.,0.));
#947=DIRECTION('',(0.,-1.,0.));
#948=DIRECTION('',(0.,-1.,0.));
#949=DIRECTION('',(-1.,0.,0.));
#950=DIRECTION('',(0.,-1.,0.));
#951=DIRECTION('',(0.,1.,0.));
#952=DIRECTION('',(0.,-1.,0.));
#953=DIRECTION('',(-1.,0.,0.));
#954=DIRECTION('',(0.,1.,0.));
#955=DIRECTION('',(1.,0.,0.));
#956=DIRECTION('',(0.,-1.,0.));
#957=DIRECTION('',(-1.,0.,0.));
#958=DIRECTION('',(0.,-1.,0.));
#959=DIRECTION('',(0.,-1.,0.));
#960=DIRECTION('',(-1.,0.,0.));
#961=DIRECTION('',(0.,0.,1.));
#962=DIRECTION('',(0.,-1.,0.));
#963=DIRECTION('',(1.,0.,0.));
#964=DIRECTION('',(0.,1.,0.));
#965=DIRECTION('',(1.,0.,0.));
#966=DIRECTION('',(0.,-1.,0.));
#967=DIRECTION('',(-1.,0.,0.));
#968=DIRECTION('',(0.,1.,0.));
#969=DIRECTION('',(1.,0.,0.));
#970=DIRECTION('',(0.,-1.,0.));
#971=DIRECTION('',(-1.,0.,0.));
#972=DIRECTION('',(0.,-1.,0.));
#973=DIRECTION('',(-1.,0.,0.));
#974=DIRECTION('',(0.,-1.,0.));
#975=DIRECTION('',(1.,0.,0.));
#976=DIRECTION('',(0.,-1.,0.));
#977=DIRECTION('',(-1.,0.,0.));
#978=DIRECTION('',(0.000122994180041537,0.,-0.999999992436216));
#979=DIRECTION('',(0.,-1.,0.));
#980=DIRECTION('',(-1.,0.,0.));
#981=DIRECTION('',(1.,0.,0.));
#982=DIRECTION('',(0.,-1.,0.));
#983=DIRECTION('',(-1.,0.,0.));
#984=DIRECTION('',(0.,0.,-1.));
#985=DIRECTION('',(0.,-1.,0.));
#986=DIRECTION('',(-1.,0.,0.));
#987=DIRECTION('',(-1.,0.,0.));
#988=DIRECTION('',(0.,0.,-1.));
#989=DIRECTION('',(0.,1.,0.));
#990=DIRECTION('',(1.,0.,0.));
#991=DIRECTION('',(-1.,0.,0.));
#992=DIRECTION('',(0.,1.,0.));
#993=DIRECTION('',(0.,0.,-1.));
#994=DIRECTION('',(0.,-1.,0.));
#995=DIRECTION('',(0.,-1.,0.));
#996=DIRECTION('',(-1.,0.,0.));
#997=DIRECTION('',(0.,-1.,0.));
#998=DIRECTION('',(-1.,0.,0.));
#999=DIRECTION('',(0.999999992436216,0.,0.000122994180041373));
#1000=DIRECTION('',(0.000122994180041373,0.,-0.999999992436216));
#1001=DIRECTION('',(-0.000122994180041373,0.,0.999999992436216));
#1002=DIRECTION('',(0.,-1.,0.));
#1003=DIRECTION('',(1.,0.,0.));
#1004=DIRECTION('',(0.,-1.,0.));
#1005=DIRECTION('',(-1.,0.,0.));
#1006=DIRECTION('',(-1.,0.,0.));
#1007=DIRECTION('',(0.,-1.,0.));
#1008=DIRECTION('',(-1.,0.,0.));
#1009=DIRECTION('',(0.,0.,-1.));
#1010=DIRECTION('',(0.,-1.,0.));
#1011=DIRECTION('',(-1.,0.,0.));
#1012=DIRECTION('',(1.,0.,0.));
#1013=DIRECTION('',(0.,-1.,0.));
#1014=DIRECTION('',(-1.,0.,0.));
#1015=DIRECTION('',(0.000122994180041537,0.,-0.999999992436216));
#1016=DIRECTION('',(0.,-1.,0.));
#1017=DIRECTION('',(-1.,0.,0.));
#1018=DIRECTION('',(0.,0.,1.));
#1019=DIRECTION('',(0.,0.,1.));
#1020=DIRECTION('',(0.,0.,1.));
#1021=DIRECTION('',(0.,-1.,0.));
#1022=DIRECTION('',(0.,0.,1.));
#1023=DIRECTION('',(0.,-1.,0.));
#1024=DIRECTION('',(-1.,0.,0.));
#1025=DIRECTION('',(0.,0.,1.));
#1026=DIRECTION('',(0.,0.,1.));
#1027=DIRECTION('',(0.,-1.,0.));
#1028=DIRECTION('',(-1.,0.,0.));
#1029=DIRECTION('',(0.,1.,0.));
#1030=DIRECTION('',(-1.,0.,0.));
#1031=DIRECTION('',(0.,1.,0.));
#1032=DIRECTION('',(1.,0.,0.));
#1033=DIRECTION('',(0.,-1.,0.));
#1034=DIRECTION('',(0.,-1.,0.));
#1035=DIRECTION('',(-1.,0.,0.));
#1036=DIRECTION('',(0.,-1.,0.));
#1037=DIRECTION('',(-1.,0.,0.));
#1038=DIRECTION('',(0.,0.,-1.));
#1039=DIRECTION('',(0.,1.,0.));
#1040=DIRECTION('',(-0.000122994180041537,0.,0.999999992436216));
#1041=DIRECTION('',(0.999999992436216,0.,0.000122994180041537));
#1042=DIRECTION('',(0.000122994180028904,0.,-0.999999992436216));
#1043=DIRECTION('',(-0.999999992436216,0.,-0.000122994180028904));
#1044=DIRECTION('',(0.,0.,-1.));
#1045=DIRECTION('',(0.,1.,0.));
#1046=DIRECTION('',(0.,-3.19354097906711E-15,-1.));
#1047=DIRECTION('',(0.,1.,-3.19354097906711E-15));
#1048=DIRECTION('',(0.,-1.,0.));
#1049=DIRECTION('',(-1.,0.,0.));
#1050=DIRECTION('',(-1.,0.,0.));
#1051=DIRECTION('',(0.,1.,0.));
#1052=DIRECTION('',(0.,-1.,0.));
#1053=DIRECTION('',(-1.,0.,0.));
#1054=DIRECTION('',(1.,0.,0.));
#1055=DIRECTION('',(0.,-1.,0.));
#1056=DIRECTION('',(0.,0.,1.));
#1057=DIRECTION('',(0.,-1.,0.));
#1058=DIRECTION('',(-3.19354097906712E-15,0.,-1.));
#1059=DIRECTION('',(-1.,0.,3.19354097906712E-15));
#1060=DIRECTION('',(0.,0.,1.));
#1061=DIRECTION('',(0.,-1.,0.));
#1062=DIRECTION('',(0.,-1.,0.));
#1063=DIRECTION('',(-1.,0.,0.));
#1064=DIRECTION('',(1.,0.,0.));
#1065=DIRECTION('',(0.,-1.,0.));
#1066=DIRECTION('',(0.,-1.,0.));
#1067=DIRECTION('',(-1.,0.,0.));
#1068=DIRECTION('',(1.,0.,0.));
#1069=DIRECTION('',(0.,-1.,0.));
#1070=DIRECTION('',(1.,0.,0.));
#1071=DIRECTION('',(0.,-1.,0.));
#1072=DIRECTION('',(-1.,0.,0.));
#1073=DIRECTION('',(0.,1.,0.));
#1074=DIRECTION('',(1.,0.,0.));
#1075=DIRECTION('',(0.,-1.,0.));
#1076=DIRECTION('',(0.,-1.,0.));
#1077=DIRECTION('',(-1.,0.,0.));
#1078=DIRECTION('',(0.,-1.,0.));
#1079=DIRECTION('',(-1.,0.,0.));
#1080=DIRECTION('',(-0.000122994180041679,0.,0.999999992436216));
#1081=DIRECTION('',(0.999999992436216,0.,0.000122994180041679));
#1082=DIRECTION('',(0.000122994180041537,0.,-0.999999992436216));
#1083=DIRECTION('',(-0.999999992436216,0.,-0.000122994180041537));
#1084=CARTESIAN_POINT('',(0.,0.,0.));
#1085=CARTESIAN_POINT('',(0.145749999920013,-0.0031,0.143199999999967));
#1086=CARTESIAN_POINT('',(0.12649999983943,-0.0031,0.143199999999967));
#1087=CARTESIAN_POINT('',(0.12649999983943,-0.00092721,0.143199999999967));
#1088=CARTESIAN_POINT('',(0.12649999983943,0.01042721,0.143199999999967));
#1089=CARTESIAN_POINT('',(0.145749999920013,-0.00092721,0.143199999999967));
#1090=CARTESIAN_POINT('',(0.165000000000596,-0.00092721,0.143199999999967));
#1091=CARTESIAN_POINT('',(0.165000000000596,-0.0031,0.143199999999967));
#1092=CARTESIAN_POINT('',(0.165000000000596,0.01042721,0.143199999999967));
#1093=CARTESIAN_POINT('',(0.12649999983943,0.01042721,0.143199999999967));
#1094=CARTESIAN_POINT('',(0.131356582364392,0.00435194693408914,0.143199999999967));
#1095=CARTESIAN_POINT('',(0.13069175183773,0.00628792447969317,0.143199999999967));
#1096=CARTESIAN_POINT('',(0.130738728233917,0.00240046929913691,0.143199999999967));
#1097=CARTESIAN_POINT('',(0.134164738364867,0.00628792447969317,0.143199999999967));
#1098=CARTESIAN_POINT('',(0.137637724892004,0.00628792447969317,0.143199999999967));
#1099=CARTESIAN_POINT('',(0.137637724892004,0.00434419688941504,0.143199999999967));
#1100=CARTESIAN_POINT('',(0.137637724892004,0.00240046929913692,0.143199999999967));
#1101=CARTESIAN_POINT('',(0.13418822656296,0.00240046929913691,0.143199999999967));
#1102=CARTESIAN_POINT('',(0.,0.0126,0.140499999999967));
#1103=CARTESIAN_POINT('',(0.,0.,0.140499999999967));
#1104=CARTESIAN_POINT('',(0.165000000000579,0.,0.140499999999983));
#1105=CARTESIAN_POINT('',(0.126499999839413,0.,0.14049999999995));
#1106=CARTESIAN_POINT('',(0.126499999839413,0.0126,0.14049999999995));
#1107=CARTESIAN_POINT('',(0.126499999839413,0.0126,0.14049999999995));
#1108=CARTESIAN_POINT('',(0.,0.0126,0.140499999999967));
#1109=CARTESIAN_POINT('',(0.165000000000579,0.0126,0.140499999999983));
#1110=CARTESIAN_POINT('',(0.165000000000579,0.0126,0.140499999999983));
#1111=CARTESIAN_POINT('',(0.,0.00628792447969317,0.140499999999967));
#1112=CARTESIAN_POINT('',(0.13069175183773,0.00628792447969317,0.140499999999967));
#1113=CARTESIAN_POINT('',(0.137637724892004,0.00628792447969317,0.140499999999967));
#1114=CARTESIAN_POINT('',(0.131356582364392,0.00435194693408914,0.140499999999967));
#1115=CARTESIAN_POINT('',(0.130738728233917,0.00240046929913691,0.140499999999967));
#1116=CARTESIAN_POINT('',(0.,0.00240046929913691,0.140499999999967));
#1117=CARTESIAN_POINT('',(0.137637724892004,0.00240046929913692,0.140499999999967));
#1118=CARTESIAN_POINT('',(0.137637724892004,0.00434419688941504,0.140499999999967));
#1119=CARTESIAN_POINT('',(0.152250000018897,0.,0.0977230747310754));
#1120=CARTESIAN_POINT('',(0.,0.,0.054999999999998));
#1121=CARTESIAN_POINT('',(0.127289652824402,0.,0.054999999999998));
#1122=CARTESIAN_POINT('',(0.17800000016058,0.,0.054999999999997));
#1123=CARTESIAN_POINT('',(0.,0.,0.054999999999998));
#1124=CARTESIAN_POINT('',(0.126499999839415,0.,0.054999999999999));
#1125=CARTESIAN_POINT('',(0.12649999967883,0.,0.05999999967883));
#1126=CARTESIAN_POINT('',(0.121499999999997,0.,0.0599999998394128));
#1127=CARTESIAN_POINT('',(0.121499999999998,0.,0.));
#1128=CARTESIAN_POINT('',(0.1215,0.,0.13550000016055));
#1129=CARTESIAN_POINT('',(0.12649999967883,0.,0.1355000003211));
#1130=CARTESIAN_POINT('',(0.165000000000596,0.,0.122490864360739));
#1131=CARTESIAN_POINT('',(0.182992217999995,0.,0.123271285999879));
#1132=CARTESIAN_POINT('',(0.182999999999997,0.,0.06));
#1133=CARTESIAN_POINT('',(0.182999999999997,0.,0.06));
#1134=CARTESIAN_POINT('',(0.17800000032116,0.,0.05999999967883));
#1135=CARTESIAN_POINT('',(0.152733357110899,-0.0031,0.052299999999998));
#1136=CARTESIAN_POINT('',(0.17800061489529,-0.0031,0.0522999999622025));
#1137=CARTESIAN_POINT('',(0.17800061489529,-0.00092721,0.0522999999622025));
#1138=CARTESIAN_POINT('',(0.17800061489529,0.01042721,0.0522999999622025));
#1139=CARTESIAN_POINT('',(0.152733357110899,-0.00092721,0.052299999999998));
#1140=CARTESIAN_POINT('',(0.127466099326508,-0.00092721,0.052299999999998));
#1141=CARTESIAN_POINT('',(0.127466099326508,-0.0031,0.052299999999998));
#1142=CARTESIAN_POINT('',(0.127466099326508,0.01042721,0.052299999999998));
#1143=CARTESIAN_POINT('',(0.17800061489529,0.01042721,0.052299999999998));
#1144=CARTESIAN_POINT('',(0.17800061489529,-0.0031,0.0599993851047237));
#1145=CARTESIAN_POINT('',(0.185699999979575,-0.0031,0.0600003320842861));
#1146=CARTESIAN_POINT('',(0.185699999979575,-0.00092721,0.0600003320842861));
#1147=CARTESIAN_POINT('',(0.185699999979575,0.01042721,0.0600003320842861));
#1148=CARTESIAN_POINT('',(0.17800061489529,-0.00092721,0.0599993851047237));
#1149=CARTESIAN_POINT('',(0.17800061489529,0.01042721,0.0599993851047237));
#1150=CARTESIAN_POINT('',(0.185696105515753,-0.0031,0.0916641375668286));
#1151=CARTESIAN_POINT('',(0.185692211051931,-0.0031,0.123327943049371));
#1152=CARTESIAN_POINT('',(0.185692211051931,-0.00092721,0.123327943049371));
#1153=CARTESIAN_POINT('',(0.185692211051931,0.01042721,0.123327943049371));
#1154=CARTESIAN_POINT('',(0.185696105515753,-0.00092721,0.0916641375668286));
#1155=CARTESIAN_POINT('',(0.185692211051931,0.01042721,0.123327943049371));
#1156=CARTESIAN_POINT('',(0.165000000000596,-0.0031,0.122490864360739));
#1157=CARTESIAN_POINT('',(0.165000000000596,-0.00092721,0.122490864360739));
#1158=CARTESIAN_POINT('',(0.165000000000596,0.01042721,0.122490864360739));
#1159=CARTESIAN_POINT('',(0.12649999983943,-0.0031,0.135500000160521));
#1160=CARTESIAN_POINT('',(0.118799999999998,-0.0031,0.135500000160521));
#1161=CARTESIAN_POINT('',(0.118799999999998,-0.00092721,0.135500000160521));
#1162=CARTESIAN_POINT('',(0.118799999999998,0.01042721,0.135500000160521));
#1163=CARTESIAN_POINT('',(0.12649999983943,-0.00092721,0.135500000160521));
#1164=CARTESIAN_POINT('',(0.12649999983943,0.01042721,0.135500000160521));
#1165=CARTESIAN_POINT('',(0.118799999999998,-0.0031,0.0977499999999668));
#1166=CARTESIAN_POINT('',(0.118799999999997,-0.0031,0.0599999998394128));
#1167=CARTESIAN_POINT('',(0.118799999999997,-0.00092721,0.0599999998394128));
#1168=CARTESIAN_POINT('',(0.118799999999997,0.01042721,0.0599999998394128));
#1169=CARTESIAN_POINT('',(0.118799999999998,-0.00092721,0.135500000160521));
#1170=CARTESIAN_POINT('',(0.118799999999998,0.01042721,0.0977499999999668));
#1171=CARTESIAN_POINT('',(0.165000000000596,-0.0031,0.122490864360739));
#1172=CARTESIAN_POINT('',(0.165000000000579,-0.0031,0.140499999999983));
#1173=CARTESIAN_POINT('',(0.165000000000579,-0.0031,0.140499999999983));
#1174=CARTESIAN_POINT('',(0.165000000000596,-0.0031,0.122490864360739));
#1175=CARTESIAN_POINT('',(0.182992217999995,-0.0031,0.123271285999879));
#1176=CARTESIAN_POINT('',(0.182992217999995,-0.0031,0.123271285999879));
#1177=CARTESIAN_POINT('',(0.126553850377226,-0.0031,0.0599999998394128));
#1178=CARTESIAN_POINT('',(0.127289652824402,-0.0031,0.054999999999998));
#1179=CARTESIAN_POINT('',(0.127289652824402,-0.0031,0.054999999999998));
#1180=CARTESIAN_POINT('',(0.127289652824402,0.0126,0.054999999999998));
#1181=CARTESIAN_POINT('',(0.127289652824402,0.0126,0.054999999999998));
#1182=CARTESIAN_POINT('',(0.126553850377226,0.0126,0.0599999998394128));
#1183=CARTESIAN_POINT('',(0.121499999999997,0.0126,0.0599999998394128));
#1184=CARTESIAN_POINT('',(0.121499999999997,0.0126,0.0599999998394128));
#1185=CARTESIAN_POINT('',(0.121499999999997,-0.0031,0.0599999998394128));
#1186=CARTESIAN_POINT('',(0.121499999999997,-0.0031,0.0599999998394128));
#1187=CARTESIAN_POINT('',(0.126553850377226,-0.0031,0.0599999998394128));
#1188=CARTESIAN_POINT('',(0.12649999967883,-0.0031,0.05999999967883));
#1189=CARTESIAN_POINT('',(0.126499999839415,-0.0031,0.054999999999999));
#1190=CARTESIAN_POINT('',(0.126499999839415,-0.0031,0.054999999999999));
#1191=CARTESIAN_POINT('',(0.12649999967883,-0.0031,0.05999999967883));
#1192=CARTESIAN_POINT('',(0.17800061489529,-0.0031,0.0599993851047237));
#1193=CARTESIAN_POINT('',(0.182999999999997,-0.0031,0.06));
#1194=CARTESIAN_POINT('',(0.182999999999997,-0.0031,0.06));
#1195=CARTESIAN_POINT('',(0.182999999999997,0.0126,0.06));
#1196=CARTESIAN_POINT('',(0.182999999999997,0.0126,0.06));
#1197=CARTESIAN_POINT('',(0.17800061489529,0.0126,0.0599993851047237));
#1198=CARTESIAN_POINT('',(0.17800000016058,0.0126,0.054999999999997));
#1199=CARTESIAN_POINT('',(0.17800000016058,0.0126,0.054999999999997));
#1200=CARTESIAN_POINT('',(0.17800000016058,-0.0031,0.054999999999997));
#1201=CARTESIAN_POINT('',(0.17800000016058,-0.0031,0.054999999999997));
#1202=CARTESIAN_POINT('',(0.17800061489529,-0.0031,0.0599993851047237));
#1203=CARTESIAN_POINT('',(0.1655017074303,-0.0031,0.1230148053494));
#1204=CARTESIAN_POINT('',(0.1655017074303,0.0126,0.1230148053494));
#1205=CARTESIAN_POINT('',(0.182992217999995,0.0126,0.123271285999879));
#1206=CARTESIAN_POINT('',(0.182992217999995,0.0126,0.123271285999879));
#1207=CARTESIAN_POINT('',(0.1655017074303,-0.0031,0.1230148053494));
#1208=CARTESIAN_POINT('',(0.,-0.0031,0.054999999999998));
#1209=CARTESIAN_POINT('',(0.,-0.0031,0.054999999999998));
#1210=CARTESIAN_POINT('',(0.17800000032116,-0.0031,0.05999999967883));
#1211=CARTESIAN_POINT('',(0.17800000032116,-0.0031,0.05999999967883));
#1212=CARTESIAN_POINT('',(0.126553850377226,-0.0031,0.0599999998394128));
#1213=CARTESIAN_POINT('',(0.126553850377226,-0.00092721,0.0599999998394128));
#1214=CARTESIAN_POINT('',(0.126553850377226,0.01042721,0.0599999998394128));
#1215=CARTESIAN_POINT('',(0.152250000018897,-0.0031,0.0977230747310754));
#1216=CARTESIAN_POINT('',(0.17800061489529,-0.0031,0.0599993851047237));
#1217=CARTESIAN_POINT('',(0.17800061489529,-0.0031,0.054472789999998));
#1218=CARTESIAN_POINT('',(0.183527209996009,-0.0031,0.0600000648437616));
#1219=CARTESIAN_POINT('',(0.183522569812227,-0.0031,0.097726921075184));
#1220=CARTESIAN_POINT('',(0.183519426604459,-0.0031,0.123282664790819));
#1221=CARTESIAN_POINT('',(0.165000000000596,-0.0031,0.122490864360739));
#1222=CARTESIAN_POINT('',(0.165000000000596,-0.0031,0.141027209999967));
#1223=CARTESIAN_POINT('',(0.152250000018897,-0.0031,0.141027209999967));
#1224=CARTESIAN_POINT('',(0.12649999983943,-0.0031,0.141027209999967));
#1225=CARTESIAN_POINT('',(0.12649999983943,-0.0031,0.135500000160521));
#1226=CARTESIAN_POINT('',(0.120972789999998,-0.0031,0.135500000160521));
#1227=CARTESIAN_POINT('',(0.120972789999998,-0.0031,0.0599999998394128));
#1228=CARTESIAN_POINT('',(0.120972789999998,-0.0031,0.0599999998394128));
#1229=CARTESIAN_POINT('',(0.126553850377226,-0.0031,0.0599999998394128));
#1230=CARTESIAN_POINT('',(0.127327275438465,-0.0031,0.054472789999998));
#1231=CARTESIAN_POINT('',(0.152250000018897,-0.0031,0.054472789999998));
#1232=CARTESIAN_POINT('',(0.,0.0126,0.054999999999998));
#1233=CARTESIAN_POINT('',(0.,0.0126,0.054999999999998));
#1234=CARTESIAN_POINT('',(0.121499999999998,0.0126,0.));
#1235=CARTESIAN_POINT('',(0.121499999999998,0.0126,0.));
#1236=CARTESIAN_POINT('',(0.1215,0.0126,0.13550000016055));
#1237=CARTESIAN_POINT('',(0.1215,0.0126,0.13550000016055));
#1238=CARTESIAN_POINT('',(0.12649999967883,0.0126,0.1355000003211));
#1239=CARTESIAN_POINT('',(0.12649999967883,0.0126,0.1355000003211));
#1240=CARTESIAN_POINT('',(0.182999999999997,0.0126,0.06));
#1241=CARTESIAN_POINT('',(0.182999999999997,0.0126,0.06));
#1242=CARTESIAN_POINT('',(0.152250000018897,0.0126,0.0977230747310754));
#1243=CARTESIAN_POINT('',(0.17800061489529,0.0126,0.0599993851047237));
#1244=CARTESIAN_POINT('',(0.183527209996009,0.0126,0.0600000648437616));
#1245=CARTESIAN_POINT('',(0.17800061489529,0.0126,0.0544727899622025));
#1246=CARTESIAN_POINT('',(0.127466099326508,0.0126,0.054472789999998));
#1247=CARTESIAN_POINT('',(0.127327275438465,0.0126,0.054472789999998));
#1248=CARTESIAN_POINT('',(0.126553850377226,0.0126,0.0599999998394128));
#1249=CARTESIAN_POINT('',(0.120972789999998,0.0126,0.0599999998394128));
#1250=CARTESIAN_POINT('',(0.120972789999998,0.0126,0.0977230747310754));
#1251=CARTESIAN_POINT('',(0.120972789999998,0.0126,0.135500000160521));
#1252=CARTESIAN_POINT('',(0.12649999983943,0.0126,0.135500000160521));
#1253=CARTESIAN_POINT('',(0.12649999983943,0.0126,0.141027209999967));
#1254=CARTESIAN_POINT('',(0.165000000000596,0.0126,0.141027209999967));
#1255=CARTESIAN_POINT('',(0.165000000000596,0.0126,0.141027209999967));
#1256=CARTESIAN_POINT('',(0.165000000000596,0.0126,0.122490864360739));
#1257=CARTESIAN_POINT('',(0.183519426604459,0.0126,0.123282664790819));
#1258=CARTESIAN_POINT('',(0.183527209996009,0.0126,0.0600000648437616));
#1259=CARTESIAN_POINT('',(0.134164738364867,0.00628792447969317,0.118199999999967));
#1260=CARTESIAN_POINT('',(0.137637724892004,0.00628792447969317,0.118199999999967));
#1261=CARTESIAN_POINT('',(0.13069175183773,0.00628792447969317,0.118199999999967));
#1262=CARTESIAN_POINT('',(0.131356582364392,0.00435194693408914,0.118199999999967));
#1263=CARTESIAN_POINT('',(0.130738728233917,0.00240046929913691,0.118199999999967));
#1264=CARTESIAN_POINT('',(0.13418822656296,0.00240046929913691,0.118199999999967));
#1265=CARTESIAN_POINT('',(0.137637724892004,0.00240046929913692,0.118199999999967));
#1266=CARTESIAN_POINT('',(0.137637724892004,0.00434419688941504,0.118199999999967));
#1267=CARTESIAN_POINT('',(0.152250000018897,0.01042721,0.141027209999967));
#1268=CARTESIAN_POINT('',(0.12649999983943,0.01042721,0.141027209999967));
#1269=CARTESIAN_POINT('',(0.165000000000596,0.01042721,0.141027209999967));
#1270=CARTESIAN_POINT('',(0.165000000000596,0.01042721,0.122490864360739));
#1271=CARTESIAN_POINT('',(0.185692211051931,0.01042721,0.123327943049371));
#1272=CARTESIAN_POINT('',(0.185692211051931,0.011001148703631,0.123327943049371));
#1273=CARTESIAN_POINT('',(0.185223798006787,0.0121258057133275,0.123318529103231));
#1274=CARTESIAN_POINT('',(0.184085119284836,0.0126,0.123294779869035));
#1275=CARTESIAN_POINT('',(0.183519426604459,0.0126,0.123282664790819));
#1276=CARTESIAN_POINT('',(0.12649999983943,0.01042721,0.135500000160521));
#1277=CARTESIAN_POINT('',(0.120972789999983,0.01042721,0.135500000160521));
#1278=CARTESIAN_POINT('',(0.183522569812227,0.01042721,0.097726921075184));
#1279=CARTESIAN_POINT('',(0.183527209996009,0.01042721,0.0600000648437616));
#1280=CARTESIAN_POINT('',(0.120972789999998,0.01042721,0.0977499999999668));
#1281=CARTESIAN_POINT('',(0.120972789999998,0.01042721,0.0599999998394128));
#1282=CARTESIAN_POINT('',(0.17800061489529,0.01042721,0.0599993851047237));
#1283=CARTESIAN_POINT('',(0.17800061489529,0.01042721,0.0544727899622025));
#1284=CARTESIAN_POINT('',(0.126553850377226,0.01042721,0.0599999998394128));
#1285=CARTESIAN_POINT('',(0.127466099326508,0.01042721,0.052299999999998));
#1286=CARTESIAN_POINT('',(0.127466099326508,0.0110016783418066,0.052299999999998));
#1287=CARTESIAN_POINT('',(0.127439076865148,0.0121270348505771,0.0527695380858024));
#1288=CARTESIAN_POINT('',(0.127366566837035,0.0126,0.0539078358144347));
#1289=CARTESIAN_POINT('',(0.127327275438465,0.0126,0.054472789999998));
#1290=CARTESIAN_POINT('',(0.152250000018897,0.01042721,0.054472789999998));
#1291=CARTESIAN_POINT('',(0.120972789999998,-0.00092721,0.0977230747310754));
#1292=CARTESIAN_POINT('',(0.120972789999998,-0.00092721,0.0599999998394128));
#1293=CARTESIAN_POINT('',(0.120972789999998,-0.00092721,0.135500000160521));
#1294=CARTESIAN_POINT('',(0.12649999983943,-0.00092721,0.135500000160521));
#1295=CARTESIAN_POINT('',(0.12649999983943,-0.00092721,0.141027209999967));
#1296=CARTESIAN_POINT('',(0.126553850377226,-0.00092721,0.0599999998394128));
#1297=CARTESIAN_POINT('',(0.127466099326508,-0.00092721,0.052299999999998));
#1298=CARTESIAN_POINT('',(0.127466099326508,-0.00150167834180664,0.052299999999998));
#1299=CARTESIAN_POINT('',(0.127439076865146,-0.0026270348505771,0.0527695380858023));
#1300=CARTESIAN_POINT('',(0.127366566837039,-0.0031,0.053907835814435));
#1301=CARTESIAN_POINT('',(0.127327275438465,-0.0031,0.054472789999998));
#1302=CARTESIAN_POINT('',(0.145749999920013,-0.00092721,0.141027209999967));
#1303=CARTESIAN_POINT('',(0.165000000000596,-0.00092721,0.141027209999967));
#1304=CARTESIAN_POINT('',(0.152733357110899,-0.00092721,0.054472789999998));
#1305=CARTESIAN_POINT('',(0.17800061489529,-0.00092721,0.054472789999998));
#1306=CARTESIAN_POINT('',(0.165000000000596,-0.00092721,0.122490864360739));
#1307=CARTESIAN_POINT('',(0.185692211051931,-0.00092721,0.123327943049371));
#1308=CARTESIAN_POINT('',(0.185692211051931,-0.00150114870363105,0.123327943049371));
#1309=CARTESIAN_POINT('',(0.185223798006787,-0.00262580571332742,0.12331852910324));
#1310=CARTESIAN_POINT('',(0.184085119284837,-0.00310000000000001,0.123294779869023));
#1311=CARTESIAN_POINT('',(0.183519426604459,-0.0031,0.123282664790819));
#1312=CARTESIAN_POINT('',(0.17800061489529,-0.00092721,0.0599993851047237));
#1313=CARTESIAN_POINT('',(0.183527209996009,-0.00092721,0.0600000648437616));
#1314=CARTESIAN_POINT('',(0.183523315532188,-0.00092721,0.0916638703263041));
#1315=MECHANICAL_DESIGN_GEOMETRIC_PRESENTATION_REPRESENTATION('',(#746),
#1316);
#1316=(
GEOMETRIC_REPRESENTATION_CONTEXT(3)
GLOBAL_UNCERTAINTY_ASSIGNED_CONTEXT((#1317))
GLOBAL_UNIT_ASSIGNED_CONTEXT((#1320,#1319,#1318))
REPRESENTATION_CONTEXT('Part 78','TOP_LEVEL_ASSEMBLY_PART')
);
#1317=UNCERTAINTY_MEASURE_WITH_UNIT(LENGTH_MEASURE(2.E-5),#1320,
'DISTANCE_ACCURACY_VALUE','Maximum Tolerance applied to model');
#1318=(
NAMED_UNIT(*)
SI_UNIT($,.STERADIAN.)
SOLID_ANGLE_UNIT()
);
#1319=(
NAMED_UNIT(*)
PLANE_ANGLE_UNIT()
SI_UNIT($,.RADIAN.)
);
#1320=(
LENGTH_UNIT()
NAMED_UNIT(*)
SI_UNIT($,.METRE.)
);
#1321=PRODUCT_DEFINITION_SHAPE('','',#1322);
#1322=PRODUCT_DEFINITION('','',#1324,#1323);
#1323=PRODUCT_DEFINITION_CONTEXT('',#1330,'design');
#1324=PRODUCT_DEFINITION_FORMATION_WITH_SPECIFIED_SOURCE('','',#1326,
 .NOT_KNOWN.);
#1325=PRODUCT_RELATED_PRODUCT_CATEGORY('','',(#1326));
#1326=PRODUCT('Part 78','Part 78','Part 78',(#1328));
#1327=PRODUCT_CATEGORY('','');
#1328=PRODUCT_CONTEXT('',#1330,'mechanical');
#1329=APPLICATION_PROTOCOL_DEFINITION('international standard',
'ap242_managed_model_based_3d_engineering',2020,#1330);
#1330=APPLICATION_CONTEXT('managed model based 3d engineering');
ENDSEC;
END-ISO-10303-21;
