ISO-10303-21;
HEADER;
/* Generated by software containing ST-Developer
 * from STEP Tools, Inc. (www.steptools.com) 
 */
/* OPTION: using custom renumber hook */

FILE_DESCRIPTION(
/* description */ ('STEP AP242 Edition 2',
'CAx-IF Rec.Pracs.---Representation and Presentation of Product Manufa
cturing Information (PMI)---4.0---2014-10-13',
'CAx-IF Rec.Pracs.---3D Tessellated Geometry---0.4---2014-09-14','2;1',
'CAx-IF Rec.Pracs.---User Defined Attributes---1.5---2016-08-15'),
/* implementation_level */ '2;1');

FILE_NAME(
/* name */ 'Assembly 1 - Part 82',
/* time_stamp */ '2026-09-12T15:16:11Z',
/* author */ (''),
/* organization */ (''),
/* preprocessor_version */ 'ST-DEVELOPER v20',
/* originating_system */ 'ONSHAPE BY PTC INC, 1.220',
/* authorisation */ '  ');

FILE_SCHEMA (('AP242_MANAGED_MODEL_BASED_3D_ENGINEERING_MIM_LF { 1 0 10303 442 3 1 4 }'));
ENDSEC;

DATA;
#10=SHAPE_REPRESENTATION_RELATIONSHIP('','',#213,#11);
#11=ADVANCED_BREP_SHAPE_REPRESENTATION('',(#211),#357);
#12=CIRCLE('',#217,0.00217279220613579);
#13=CIRCLE('',#218,0.00217279220613579);
#14=CIRCLE('',#221,0.00217279220613583);
#15=CIRCLE('',#222,0.00217279220613583);
#16=CIRCLE('',#225,0.00217279220613578);
#17=CIRCLE('',#226,0.00217279220613578);
#18=CIRCLE('',#229,0.00217279220613579);
#19=CIRCLE('',#230,0.00217279220613579);
#20=CIRCLE('',#233,0.00260862410440571);
#21=CIRCLE('',#235,0.00260862410440571);
#22=CYLINDRICAL_SURFACE('',#216,0.00217279220613579);
#23=CYLINDRICAL_SURFACE('',#220,0.00217279220613583);
#24=CYLINDRICAL_SURFACE('',#224,0.00217279220613578);
#25=CYLINDRICAL_SURFACE('',#228,0.00217279220613579);
#26=CYLINDRICAL_SURFACE('',#234,0.00260862410440571);
#27=ORIENTED_EDGE('',*,*,#79,.F.);
#28=ORIENTED_EDGE('',*,*,#80,.F.);
#29=ORIENTED_EDGE('',*,*,#81,.T.);
#30=ORIENTED_EDGE('',*,*,#82,.T.);
#31=ORIENTED_EDGE('',*,*,#83,.T.);
#32=ORIENTED_EDGE('',*,*,#84,.F.);
#33=ORIENTED_EDGE('',*,*,#85,.F.);
#34=ORIENTED_EDGE('',*,*,#80,.T.);
#35=ORIENTED_EDGE('',*,*,#86,.T.);
#36=ORIENTED_EDGE('',*,*,#87,.F.);
#37=ORIENTED_EDGE('',*,*,#88,.F.);
#38=ORIENTED_EDGE('',*,*,#84,.T.);
#39=ORIENTED_EDGE('',*,*,#89,.T.);
#40=ORIENTED_EDGE('',*,*,#90,.F.);
#41=ORIENTED_EDGE('',*,*,#91,.F.);
#42=ORIENTED_EDGE('',*,*,#87,.T.);
#43=ORIENTED_EDGE('',*,*,#92,.T.);
#44=ORIENTED_EDGE('',*,*,#93,.F.);
#45=ORIENTED_EDGE('',*,*,#94,.F.);
#46=ORIENTED_EDGE('',*,*,#90,.T.);
#47=ORIENTED_EDGE('',*,*,#95,.T.);
#48=ORIENTED_EDGE('',*,*,#96,.F.);
#49=ORIENTED_EDGE('',*,*,#97,.F.);
#50=ORIENTED_EDGE('',*,*,#93,.T.);
#51=ORIENTED_EDGE('',*,*,#98,.F.);
#52=ORIENTED_EDGE('',*,*,#99,.F.);
#53=ORIENTED_EDGE('',*,*,#100,.T.);
#54=ORIENTED_EDGE('',*,*,#96,.T.);
#55=ORIENTED_EDGE('',*,*,#101,.T.);
#56=ORIENTED_EDGE('',*,*,#82,.F.);
#57=ORIENTED_EDGE('',*,*,#102,.F.);
#58=ORIENTED_EDGE('',*,*,#99,.T.);
#59=ORIENTED_EDGE('',*,*,#81,.F.);
#60=ORIENTED_EDGE('',*,*,#85,.T.);
#61=ORIENTED_EDGE('',*,*,#88,.T.);
#62=ORIENTED_EDGE('',*,*,#91,.T.);
#63=ORIENTED_EDGE('',*,*,#94,.T.);
#64=ORIENTED_EDGE('',*,*,#97,.T.);
#65=ORIENTED_EDGE('',*,*,#100,.F.);
#66=ORIENTED_EDGE('',*,*,#102,.T.);
#67=ORIENTED_EDGE('',*,*,#103,.T.);
#68=ORIENTED_EDGE('',*,*,#79,.T.);
#69=ORIENTED_EDGE('',*,*,#101,.F.);
#70=ORIENTED_EDGE('',*,*,#98,.T.);
#71=ORIENTED_EDGE('',*,*,#95,.F.);
#72=ORIENTED_EDGE('',*,*,#92,.F.);
#73=ORIENTED_EDGE('',*,*,#89,.F.);
#74=ORIENTED_EDGE('',*,*,#86,.F.);
#75=ORIENTED_EDGE('',*,*,#83,.F.);
#76=ORIENTED_EDGE('',*,*,#104,.T.);
#77=ORIENTED_EDGE('',*,*,#103,.F.);
#78=ORIENTED_EDGE('',*,*,#104,.F.);
#79=EDGE_CURVE('',#105,#106,#123,.T.);
#80=EDGE_CURVE('',#107,#105,#124,.T.);
#81=EDGE_CURVE('',#107,#108,#125,.T.);
#82=EDGE_CURVE('',#108,#106,#126,.T.);
#83=EDGE_CURVE('',#105,#109,#12,.T.);
#84=EDGE_CURVE('',#110,#109,#127,.T.);
#85=EDGE_CURVE('',#107,#110,#13,.T.);
#86=EDGE_CURVE('',#109,#111,#128,.T.);
#87=EDGE_CURVE('',#112,#111,#129,.T.);
#88=EDGE_CURVE('',#110,#112,#130,.T.);
#89=EDGE_CURVE('',#111,#113,#14,.T.);
#90=EDGE_CURVE('',#114,#113,#131,.T.);
#91=EDGE_CURVE('',#112,#114,#15,.T.);
#92=EDGE_CURVE('',#113,#115,#132,.T.);
#93=EDGE_CURVE('',#116,#115,#133,.T.);
#94=EDGE_CURVE('',#114,#116,#134,.T.);
#95=EDGE_CURVE('',#115,#117,#16,.T.);
#96=EDGE_CURVE('',#118,#117,#135,.T.);
#97=EDGE_CURVE('',#116,#118,#17,.T.);
#98=EDGE_CURVE('',#119,#117,#136,.T.);
#99=EDGE_CURVE('',#120,#119,#137,.T.);
#100=EDGE_CURVE('',#120,#118,#138,.T.);
#101=EDGE_CURVE('',#119,#106,#18,.T.);
#102=EDGE_CURVE('',#120,#108,#19,.T.);
#103=EDGE_CURVE('',#121,#121,#20,.T.);
#104=EDGE_CURVE('',#122,#122,#21,.T.);
#105=VERTEX_POINT('',#302);
#106=VERTEX_POINT('',#303);
#107=VERTEX_POINT('',#305);
#108=VERTEX_POINT('',#307);
#109=VERTEX_POINT('',#311);
#110=VERTEX_POINT('',#313);
#111=VERTEX_POINT('',#317);
#112=VERTEX_POINT('',#319);
#113=VERTEX_POINT('',#323);
#114=VERTEX_POINT('',#325);
#115=VERTEX_POINT('',#329);
#116=VERTEX_POINT('',#331);
#117=VERTEX_POINT('',#335);
#118=VERTEX_POINT('',#337);
#119=VERTEX_POINT('',#341);
#120=VERTEX_POINT('',#343);
#121=VERTEX_POINT('',#351);
#122=VERTEX_POINT('',#354);
#123=LINE('',#301,#139);
#124=LINE('',#304,#140);
#125=LINE('',#306,#141);
#126=LINE('',#308,#142);
#127=LINE('',#312,#143);
#128=LINE('',#316,#144);
#129=LINE('',#318,#145);
#130=LINE('',#320,#146);
#131=LINE('',#324,#147);
#132=LINE('',#328,#148);
#133=LINE('',#330,#149);
#134=LINE('',#332,#150);
#135=LINE('',#336,#151);
#136=LINE('',#340,#152);
#137=LINE('',#342,#153);
#138=LINE('',#344,#154);
#139=VECTOR('',#241,1.);
#140=VECTOR('',#242,1.);
#141=VECTOR('',#243,1.);
#142=VECTOR('',#244,1.);
#143=VECTOR('',#249,1.);
#144=VECTOR('',#254,1.);
#145=VECTOR('',#255,1.);
#146=VECTOR('',#256,1.);
#147=VECTOR('',#261,1.);
#148=VECTOR('',#266,1.);
#149=VECTOR('',#267,1.);
#150=VECTOR('',#268,1.);
#151=VECTOR('',#273,1.);
#152=VECTOR('',#278,1.);
#153=VECTOR('',#279,1.);
#154=VECTOR('',#280,1.);
#155=EDGE_LOOP('',(#27,#28,#29,#30));
#156=EDGE_LOOP('',(#31,#32,#33,#34));
#157=EDGE_LOOP('',(#35,#36,#37,#38));
#158=EDGE_LOOP('',(#39,#40,#41,#42));
#159=EDGE_LOOP('',(#43,#44,#45,#46));
#160=EDGE_LOOP('',(#47,#48,#49,#50));
#161=EDGE_LOOP('',(#51,#52,#53,#54));
#162=EDGE_LOOP('',(#55,#56,#57,#58));
#163=EDGE_LOOP('',(#59,#60,#61,#62,#63,#64,#65,#66));
#164=EDGE_LOOP('',(#67));
#165=EDGE_LOOP('',(#68,#69,#70,#71,#72,#73,#74,#75));
#166=EDGE_LOOP('',(#76));
#167=EDGE_LOOP('',(#77));
#168=EDGE_LOOP('',(#78));
#169=FACE_BOUND('',#155,.T.);
#170=FACE_BOUND('',#156,.T.);
#171=FACE_BOUND('',#157,.T.);
#172=FACE_BOUND('',#158,.T.);
#173=FACE_BOUND('',#159,.T.);
#174=FACE_BOUND('',#160,.T.);
#175=FACE_BOUND('',#161,.T.);
#176=FACE_BOUND('',#162,.T.);
#177=FACE_BOUND('',#163,.T.);
#178=FACE_BOUND('',#164,.T.);
#179=FACE_BOUND('',#165,.T.);
#180=FACE_BOUND('',#166,.T.);
#181=FACE_BOUND('',#167,.T.);
#182=FACE_BOUND('',#168,.T.);
#183=PLANE('',#215);
#184=PLANE('',#219);
#185=PLANE('',#223);
#186=PLANE('',#227);
#187=PLANE('',#231);
#188=PLANE('',#232);
#189=PLANE('',#236);
#190=ADVANCED_FACE('',(#169),#183,.T.);
#191=ADVANCED_FACE('',(#170),#22,.T.);
#192=ADVANCED_FACE('',(#171),#184,.F.);
#193=ADVANCED_FACE('',(#172),#23,.T.);
#194=ADVANCED_FACE('',(#173),#185,.F.);
#195=ADVANCED_FACE('',(#174),#24,.T.);
#196=ADVANCED_FACE('',(#175),#186,.T.);
#197=ADVANCED_FACE('',(#176),#25,.T.);
#198=ADVANCED_FACE('',(#177),#187,.T.);
#199=ADVANCED_FACE('',(#178,#179),#188,.F.);
#200=ADVANCED_FACE('',(#180,#181),#26,.T.);
#201=ADVANCED_FACE('',(#182),#189,.F.);
#202=CLOSED_SHELL('',(#190,#191,#192,#193,#194,#195,#196,#197,#198,#199,
#200,#201));
#203=STYLED_ITEM('',(#204),#211);
#204=PRESENTATION_STYLE_ASSIGNMENT((#205));
#205=SURFACE_STYLE_USAGE(.BOTH.,#206);
#206=SURFACE_SIDE_STYLE('',(#207));
#207=SURFACE_STYLE_FILL_AREA(#208);
#208=FILL_AREA_STYLE('',(#209));
#209=FILL_AREA_STYLE_COLOUR('',#210);
#210=COLOUR_RGB('',0.501960784313726,0.501960784313726,0.501960784313726);
#211=MANIFOLD_SOLID_BREP('Part 82',#202);
#212=SHAPE_DEFINITION_REPRESENTATION(#362,#213);
#213=SHAPE_REPRESENTATION('Part 82',(#214),#357);
#214=AXIS2_PLACEMENT_3D('',#299,#237,#238);
#215=AXIS2_PLACEMENT_3D('',#300,#239,#240);
#216=AXIS2_PLACEMENT_3D('',#309,#245,#246);
#217=AXIS2_PLACEMENT_3D('',#310,#247,#248);
#218=AXIS2_PLACEMENT_3D('',#314,#250,#251);
#219=AXIS2_PLACEMENT_3D('',#315,#252,#253);
#220=AXIS2_PLACEMENT_3D('',#321,#257,#258);
#221=AXIS2_PLACEMENT_3D('',#322,#259,#260);
#222=AXIS2_PLACEMENT_3D('',#326,#262,#263);
#223=AXIS2_PLACEMENT_3D('',#327,#264,#265);
#224=AXIS2_PLACEMENT_3D('',#333,#269,#270);
#225=AXIS2_PLACEMENT_3D('',#334,#271,#272);
#226=AXIS2_PLACEMENT_3D('',#338,#274,#275);
#227=AXIS2_PLACEMENT_3D('',#339,#276,#277);
#228=AXIS2_PLACEMENT_3D('',#345,#281,#282);
#229=AXIS2_PLACEMENT_3D('',#346,#283,#284);
#230=AXIS2_PLACEMENT_3D('',#347,#285,#286);
#231=AXIS2_PLACEMENT_3D('',#348,#287,#288);
#232=AXIS2_PLACEMENT_3D('',#349,#289,#290);
#233=AXIS2_PLACEMENT_3D('',#350,#291,#292);
#234=AXIS2_PLACEMENT_3D('',#352,#293,#294);
#235=AXIS2_PLACEMENT_3D('',#353,#295,#296);
#236=AXIS2_PLACEMENT_3D('',#355,#297,#298);
#237=DIRECTION('',(0.,0.,1.));
#238=DIRECTION('',(1.,0.,0.));
#239=DIRECTION('',(0.,0.,-1.));
#240=DIRECTION('',(0.,1.,0.));
#241=DIRECTION('',(1.,0.,0.));
#242=DIRECTION('',(0.,-1.,0.));
#243=DIRECTION('',(1.,0.,0.));
#244=DIRECTION('',(0.,-1.,0.));
#245=DIRECTION('',(0.,-1.,0.));
#246=DIRECTION('',(-1.,0.,0.));
#247=DIRECTION('',(0.,1.,0.));
#248=DIRECTION('',(1.,0.,0.));
#249=DIRECTION('',(0.,-1.,0.));
#250=DIRECTION('',(0.,1.,0.));
#251=DIRECTION('',(1.,0.,0.));
#252=DIRECTION('',(1.,0.,0.));
#253=DIRECTION('',(0.,-1.,0.));
#254=DIRECTION('',(0.,0.,1.));
#255=DIRECTION('',(0.,-1.,0.));
#256=DIRECTION('',(0.,0.,1.));
#257=DIRECTION('',(0.,-1.,0.));
#258=DIRECTION('',(-1.,0.,0.));
#259=DIRECTION('',(0.,1.,0.));
#260=DIRECTION('',(1.,0.,0.));
#261=DIRECTION('',(0.,-1.,0.));
#262=DIRECTION('',(0.,1.,0.));
#263=DIRECTION('',(1.,0.,0.));
#264=DIRECTION('',(0.,0.,-1.));
#265=DIRECTION('',(0.,1.,0.));
#266=DIRECTION('',(1.,0.,0.));
#267=DIRECTION('',(0.,-1.,0.));
#268=DIRECTION('',(1.,0.,0.));
#269=DIRECTION('',(0.,-1.,0.));
#270=DIRECTION('',(-1.,0.,0.));
#271=DIRECTION('',(0.,1.,0.));
#272=DIRECTION('',(1.,0.,0.));
#273=DIRECTION('',(0.,-1.,0.));
#274=DIRECTION('',(0.,1.,0.));
#275=DIRECTION('',(1.,0.,0.));
#276=DIRECTION('',(1.,0.,0.));
#277=DIRECTION('',(0.,-1.,0.));
#278=DIRECTION('',(0.,0.,1.));
#279=DIRECTION('',(0.,-1.,0.));
#280=DIRECTION('',(0.,0.,1.));
#281=DIRECTION('',(0.,-1.,0.));
#282=DIRECTION('',(-1.,0.,0.));
#283=DIRECTION('',(0.,1.,0.));
#284=DIRECTION('',(1.,0.,0.));
#285=DIRECTION('',(0.,1.,0.));
#286=DIRECTION('',(1.,0.,0.));
#287=DIRECTION('',(0.,1.,0.));
#288=DIRECTION('',(1.,0.,0.));
#289=DIRECTION('',(0.,1.,0.));
#290=DIRECTION('',(1.,0.,0.));
#291=DIRECTION('',(0.,1.,0.));
#292=DIRECTION('',(1.,0.,0.));
#293=DIRECTION('',(0.,1.,0.));
#294=DIRECTION('',(1.,0.,0.));
#295=DIRECTION('',(0.,1.,0.));
#296=DIRECTION('',(1.,0.,0.));
#297=DIRECTION('',(0.,1.,0.));
#298=DIRECTION('',(1.,0.,0.));
#299=CARTESIAN_POINT('',(0.,0.,0.));
#300=CARTESIAN_POINT('',(0.153668820858001,0.0396,0.120053425431251));
#301=CARTESIAN_POINT('',(0.153668820858001,0.0376,0.120053425431251));
#302=CARTESIAN_POINT('',(0.149862551937428,0.0376,0.120053425431251));
#303=CARTESIAN_POINT('',(0.157475089778575,0.0376,0.120053425431251));
#304=CARTESIAN_POINT('',(0.149862551937428,0.0396,0.120053425431251));
#305=CARTESIAN_POINT('',(0.149862551937428,0.0396,0.120053425431251));
#306=CARTESIAN_POINT('',(0.153668820858001,0.0396,0.120053425431251));
#307=CARTESIAN_POINT('',(0.157475089778575,0.0396,0.120053425431251));
#308=CARTESIAN_POINT('',(0.157475089778575,0.0396,0.120053425431251));
#309=CARTESIAN_POINT('',(0.149862551937428,0.0396,0.122226217637387));
#310=CARTESIAN_POINT('',(0.149862551937428,0.0376,0.122226217637387));
#311=CARTESIAN_POINT('',(0.147689759731293,0.0376,0.122226217637387));
#312=CARTESIAN_POINT('',(0.147689759731293,0.0396,0.122226217637387));
#313=CARTESIAN_POINT('',(0.147689759731293,0.0396,0.122226217637387));
#314=CARTESIAN_POINT('',(0.149862551937428,0.0396,0.122226217637387));
#315=CARTESIAN_POINT('',(0.147689759731293,0.0396,0.123972810804844));
#316=CARTESIAN_POINT('',(0.147689759731293,0.0376,0.123972810804844));
#317=CARTESIAN_POINT('',(0.147689759731293,0.0376,0.1257194039723));
#318=CARTESIAN_POINT('',(0.147689759731293,0.0396,0.1257194039723));
#319=CARTESIAN_POINT('',(0.147689759731293,0.0396,0.1257194039723));
#320=CARTESIAN_POINT('',(0.147689759731293,0.0396,0.123972810804844));
#321=CARTESIAN_POINT('',(0.149862551937429,0.0396,0.1257194039723));
#322=CARTESIAN_POINT('',(0.149862551937429,0.0376,0.1257194039723));
#323=CARTESIAN_POINT('',(0.149862551937428,0.0376,0.127892196178436));
#324=CARTESIAN_POINT('',(0.149862551937428,0.0396,0.127892196178436));
#325=CARTESIAN_POINT('',(0.149862551937428,0.0396,0.127892196178436));
#326=CARTESIAN_POINT('',(0.149862551937429,0.0396,0.1257194039723));
#327=CARTESIAN_POINT('',(0.153668820858001,0.0396,0.127892196178436));
#328=CARTESIAN_POINT('',(0.153668820858001,0.0376,0.127892196178436));
#329=CARTESIAN_POINT('',(0.157475089778575,0.0376,0.127892196178436));
#330=CARTESIAN_POINT('',(0.157475089778575,0.0396,0.127892196178436));
#331=CARTESIAN_POINT('',(0.157475089778575,0.0396,0.127892196178436));
#332=CARTESIAN_POINT('',(0.153668820858001,0.0396,0.127892196178436));
#333=CARTESIAN_POINT('',(0.157475089778575,0.0396,0.1257194039723));
#334=CARTESIAN_POINT('',(0.157475089778575,0.0376,0.1257194039723));
#335=CARTESIAN_POINT('',(0.15964788198471,0.0376,0.1257194039723));
#336=CARTESIAN_POINT('',(0.15964788198471,0.0396,0.1257194039723));
#337=CARTESIAN_POINT('',(0.15964788198471,0.0396,0.1257194039723));
#338=CARTESIAN_POINT('',(0.157475089778575,0.0396,0.1257194039723));
#339=CARTESIAN_POINT('',(0.15964788198471,0.0396,0.123972810804844));
#340=CARTESIAN_POINT('',(0.15964788198471,0.0376,0.123972810804844));
#341=CARTESIAN_POINT('',(0.15964788198471,0.0376,0.122226217637387));
#342=CARTESIAN_POINT('',(0.15964788198471,0.0396,0.122226217637387));
#343=CARTESIAN_POINT('',(0.15964788198471,0.0396,0.122226217637387));
#344=CARTESIAN_POINT('',(0.15964788198471,0.0396,0.123972810804844));
#345=CARTESIAN_POINT('',(0.157475089778575,0.0396,0.122226217637387));
#346=CARTESIAN_POINT('',(0.157475089778575,0.0376,0.122226217637387));
#347=CARTESIAN_POINT('',(0.157475089778575,0.0396,0.122226217637387));
#348=CARTESIAN_POINT('',(0.161942480928157,0.0396,0.109544919007565));
#349=CARTESIAN_POINT('',(0.161942480928157,0.0376,0.109544919007565));
#350=CARTESIAN_POINT('',(0.153392031788826,0.0376,0.124022729694843));
#351=CARTESIAN_POINT('',(0.156000655893232,0.0376,0.124022729694843));
#352=CARTESIAN_POINT('',(0.153392031788826,0.0312,0.124022729694843));
#353=CARTESIAN_POINT('',(0.153392031788826,0.0312,0.124022729694843));
#354=CARTESIAN_POINT('',(0.156000655893232,0.0312,0.124022729694843));
#355=CARTESIAN_POINT('',(0.161942480928157,0.0312,0.109544919007565));
#356=MECHANICAL_DESIGN_GEOMETRIC_PRESENTATION_REPRESENTATION('',(#203),
#357);
#357=(
GEOMETRIC_REPRESENTATION_CONTEXT(3)
GLOBAL_UNCERTAINTY_ASSIGNED_CONTEXT((#358))
GLOBAL_UNIT_ASSIGNED_CONTEXT((#361,#360,#359))
REPRESENTATION_CONTEXT('Part 82','TOP_LEVEL_ASSEMBLY_PART')
);
#358=UNCERTAINTY_MEASURE_WITH_UNIT(LENGTH_MEASURE(1.E-8),#361,
'DISTANCE_ACCURACY_VALUE','Maximum Tolerance applied to model');
#359=(
NAMED_UNIT(*)
SI_UNIT($,.STERADIAN.)
SOLID_ANGLE_UNIT()
);
#360=(
NAMED_UNIT(*)
PLANE_ANGLE_UNIT()
SI_UNIT($,.RADIAN.)
);
#361=(
LENGTH_UNIT()
NAMED_UNIT(*)
SI_UNIT($,.METRE.)
);
#362=PRODUCT_DEFINITION_SHAPE('','',#363);
#363=PRODUCT_DEFINITION('','',#365,#364);
#364=PRODUCT_DEFINITION_CONTEXT('',#371,'design');
#365=PRODUCT_DEFINITION_FORMATION_WITH_SPECIFIED_SOURCE('','',#367,
 .NOT_KNOWN.);
#366=PRODUCT_RELATED_PRODUCT_CATEGORY('','',(#367));
#367=PRODUCT('Part 82','Part 82','Part 82',(#369));
#368=PRODUCT_CATEGORY('','');
#369=PRODUCT_CONTEXT('',#371,'mechanical');
#370=APPLICATION_PROTOCOL_DEFINITION('international standard',
'ap242_managed_model_based_3d_engineering',2020,#371);
#371=APPLICATION_CONTEXT('managed model based 3d engineering');
ENDSEC;
END-ISO-10303-21;
